<svg enable-background="new 0 0 24 24" height="512" viewBox="0 0 24 24" width="512" xmlns="http://www.w3.org/2000/svg"><path d="m17.5 24c-3.584 0-6.5-2.916-6.5-6.5s2.916-6.5 6.5-6.5 6.5 2.916 6.5 6.5-2.916 6.5-6.5 6.5zm0-12c-3.033 0-5.5 2.468-5.5 5.5s2.467 5.5 5.5 5.5 5.5-2.468 5.5-5.5-2.467-5.5-5.5-5.5z"/><path d="m17.5 20c-.276 0-.5-.224-.5-.5v-.263c0-.961.505-1.882 1.386-2.526.39-.286.614-.728.614-1.211 0-.827-.673-1.5-1.5-1.5s-1.5.673-1.5 1.5c0 .276-.224.5-.5.5s-.5-.224-.5-.5c0-1.379 1.122-2.5 2.5-2.5s2.5 1.121 2.5 2.5c0 .793-.382 1.548-1.023 2.018-.365.267-.977.845-.977 1.719v.263c0 .276-.224.5-.5.5z"/><path d="m17.5 22c-.13 0-.26-.05-.35-.15-.1-.09-.15-.21-.15-.35 0-.13.05-.26.15-.351.13-.14.36-.189.54-.109.06.02.12.06.16.109.1.091.15.221.15.351 0 .14-.05.26-.15.35-.09.1-.22.15-.35.15z"/><path d="m10.007 10.5c-.184 0-.36-.101-.448-.276-.123-.247-.023-.548.224-.671l9.494-4.75c.153-.078.339-.07.486.022.147.091.237.252.237.425v4.25c0 .276-.224.5-.5.5s-.5-.224-.5-.5v-3.441l-8.77 4.388c-.072.036-.148.053-.223.053z"/><path d="m9.5 20c-.082 0-.166-.021-.242-.062l-9-5c-.159-.089-.258-.256-.258-.438v-9.25c0-.173.09-.334.237-.425s.332-.099.486-.022l9.494 4.75c.247.124.347.424.224.671-.125.247-.424.347-.671.224l-8.77-4.389v8.147l8.743 4.856c.242.135.329.438.194.681-.091.164-.262.257-.437.257z"/><path d="m19.5 5.75c-.075 0-.151-.017-.223-.053l-9.283-4.638-9.27 4.638c-.247.122-.547.024-.671-.223s-.023-.547.224-.671l9.494-4.75c.141-.07.307-.07.447 0l9.506 4.75c.247.124.347.424.224.671-.088.175-.265.276-.448.276z"/><path d="m5.043 11.739c-.276 0-.5-.224-.5-.5v-3.718c0-.189.107-.362.276-.447l9.494-4.75c.247-.123.547-.023.671.224s.023.547-.224.671l-9.217 4.612v3.409c0 .276-.223.499-.5.499z"/></svg>