<svg class="animated" id="freepik_stories-free-shipping" xmlns="http://www.w3.org/2000/svg"
    xmlns:xlink="http://www.w3.org/1999/xlink" viewBox="0 0 500 500" version="1.1" xmlns:svgjs="http://svgjs.com/svgjs">
    <style>
        svg#freepik_stories-free-shipping:not(.animated) .animable {
            opacity: 0;
        }

        svg#freepik_stories-free-shipping.animated #freepik--Map--inject-26 {
            animation: 2s 1 forwards cubic-bezier(.36, -0.01, .5, 1.38) fadeIn;
            animation-delay: 0s;
        }

        svg#freepik_stories-free-shipping.animated #freepik--Airplane--inject-26 {
            animation: 1s 1 forwards linear slideLeft;
            animation-delay: 0s;
        }

        svg#freepik_stories-free-shipping.animated #freepik--Box--inject-26 {
            animation: 1s 1 forwards linear slideLeft;
            animation-delay: 0s;
        }

        @keyframes fadeIn {
            0% {
                opacity: 0;
            }

            100% {
                opacity: 1;
            }
        }

        @keyframes slideLeft {
            0% {
                opacity: 0;
                transform: translateX(-30px);
            }

            100% {
                opacity: 1;
                transform: translateX(0);
            }
        }

        .animator-hidden {
            display: none;
        }
    </style>
    <g id="freepik--Map--inject-26" class="animable" style="transform-origin: 249.765px 249.532px;">
        <path d="M247.76,225.9c.44-.07.49-2.34.24-2.37C247.09,223.44,246.74,226.05,247.76,225.9Z"
            style="fill: none; stroke: rgb(178, 178, 178); stroke-miterlimit: 10; transform-origin: 247.645px 224.717px;"
            id="elydrocgkbnko" class="animable"></path>
        <path
            d="M151.27,259c.75-.28,5.56.73,5.56-.79,0-1-5-2.28-5.56-1.81a2.94,2.94,0,0,0,.77,1.75c0,.49-2.08-.05-2.26.45A1.1,1.1,0,0,0,151.27,259Z"
            style="fill: none; stroke: rgb(178, 178, 178); stroke-miterlimit: 10; transform-origin: 153.305px 257.721px;"
            id="eliv3qgpx9zs" class="animable"></path>
        <path
            d="M194.89,289c-2,.11-4-2.49-6.18-2.8-2-.27-2.08-.48-3.8.23,1.92-.79-3.11-3.12-3.14-3.12-.85-.23-1.71,2.06-2.47,1.74.15.06.91-1.82.13-2.54s-2.14,1-2.21,1c.12.07,2.15-5.07-.32-6.42-2.38-1.56-4.34-1.26-6.5-2.35s-2.2-3.51-5-3.33c1.16-.07-2.23-3-1.29-2.66-1.51-.6-4.43.68-6.38.24-.76-.17-1.27-2.15-2.38-2.15-1.71,0-1.24,3.07-1.52,3.67-.79,1.73-1.1-4.54-.31-4-.57-.37-4.57,2.4-5,2.71-.89.66-1.25,2-2.18,2.24,1.56-.46-5-1.19-3.63-.67-4.15-1.58-2.25-2.11-3.38-5.78-.32-1,.76-1.52-.12-2.47s-4.38-1.09-5.47-.4c-.76.42.1-2.87.43-3.21h0c1.35-1.38,1.78-4.56-.31-4.62-3.48-.09-1.76,3-3.92,4.06-6.51,3.24-6.79-5.91-6.59-9.76a1.74,1.74,0,0,0-.26-.15,1.74,1.74,0,0,1,.26.15c.36-6.77,5.23-4.94,9.31-4.46-1.07-.13-.17-1.74,1.07-1.86a9.45,9.45,0,0,1,3.35.73c2,.61,1.54,0,3.06,2.59.6,1,.84,3.63,2.19,4.07.11,0-.08-9.48.69-10.61,1-1.44,3.31-3.22,4-4.16,1.68-2.15.06.27.27-2.23,0-.26-.67-3.82.47-3.82-.44,0,.4,3.34.35,3.37,1.14-.79.4-1.95.45-2.85,0-.72,3.71-2,4-2.6.13-.28-1.77,0-1.77-.06,0-1,3-.8,3.42-1.1a8.68,8.68,0,0,1,1.26-3.47c1.34-1.4,4.7-1.08,5.73-3.21-.13.26.45,1.32,1.17,1.11-2.65.78-3.91,2.18-.74,1.71,1.62-.24,4.07-1.82,5.28-2.74.07,0-.55-.83-.46-1.38a5.49,5.49,0,0,1-2.46,1.8c-3.08-.57-1.61-2.65-2.81-3.45a1.94,1.94,0,0,1-1,.2c-.33-1.11,3.74-2-.17-2.46-2.7-.35-4.05,3.57-5.9,3.57.9,0,5-5,6.94-5.44.79-.18,11.73-1,10.81-3.4q-.37-.21-.78-.39c-.75-.7,2-1.38-1-1.74a3.42,3.42,0,0,1-.08-1c-.29-.2-3.34,1.07-3.35,1.06-.23-1.12,2.83-1.24,3.17-1.82,0,0-6.55-3.14-5.95-3.92,1.21-1.56,1.2.18.41-2.25-.21-.66-3.13-4.75-2.92-4.94-1.42,1.28-.62,4.2-3.09,4.21-2.73,0-2.46-3.13-2.46-4.92,0-.78-6.77-2.8-7.28-2.79-3.83.11-2.26.35-2.5,3.38,0,.53-.61,2.68-.55,3,.45,2.35,2.4,3.1,1.21,6.12-.36.92-2.54,1.18-2.7,1.71-.21.71.84,1.44.68,2.3-.07.34.36,3.59.14,3.49-1.44-.68-.81.66-2.43-.79-1.82-1.63-.55-4-1.61-5.21-.43-.5-5.7-2.5-6.87-3a7.33,7.33,0,0,0-5.1-.81c.47-.07-.43-2.68-.63-3-1.15-1.95-2.38.22-1.69-3.62.18-1,4.48-5.59,4.51-5.46,0-.19-3.52-1.51-3.5-1.57.49-1.17,3.48,2.08,4.3-.37-.38,1.13,4.74-1.11,3.46-2-.54-.38-3.53,0-3.36-1.41-.11.95,6.43,1.28,3.83-1-.09-.08,2.38,0,2.88,0,.35,0-.94-1.2-.83-1.31.38-.37,1.69,1.83,3.41-.09,1.32-1.48-.7-1.64-.78-3.08,0-.16,2-.71,1.37-1.74a5.84,5.84,0,0,0-4.14-1.43c-.62.2.22,3.26-1.47,4.24a2,2,0,0,1-.52-.79c-.71,0,.65,2.66-.27,2.23s-1-2.28-1.14-2.41c-.36-.32-.84-1.49-1.46-2-.47-.42-1.18,2-1.42,2.07-.86.16.12-2.22.18-2.33.42-.79-2.21-.53-2.16-.49-.83-.73.57-1.13.72-1.35-.19.29-2-3-2-3-1.21-2.75-.39,0-.7-3.1.14,1.46,5.61-2.4,3.71-3s-4.68-.83-5.1.7c-.24.87-.1,4.36-.47,5.76-.11.44-1.61,1.16-1.08,2.93.2.69,4.18,1.59,2.31,3.1a.74.74,0,0,1,.78-.67c.05.11-2,3.94-1.82,3.78a27.09,27.09,0,0,1-2.4-2.46c-.11-.2,2.66-.62,2.8-.76,1.08-1-1.56-1-1.56-1.19s1.41-.11.92-.5a3.12,3.12,0,0,0-4.47.76c-.5.64,3.89,2.32-1.39,3-2.41.31-3.39-.89-5.48-1.39-.61-.14-.58-.78-1.68-.89-.39,0-3,1.11-2.2,1.47.58.26,2.74-1.22,3.08-.84-1.42-1.56-1.68,4.38-2.6,3.89-.4-.21-.15-1.64-1.4-2-1.7-.57-5.58,1.19-6.85-.2-.62-.68,1.63-.84,1.46-1.24-.63-1.46-4.19-1.56-5.49-1.86s-2.23-1-3.38-1.16c-1.39-.15-1.92.85-3.21.85-.19,0,.26-1.73-.33-1.81A7.34,7.34,0,0,1,89.89,175c-1.24-.1-1.07-3.13-2.54-2.91,1-.15-2.1,2.21-1.89,2.09a41.08,41.08,0,0,1-4.08,2.28c-.77,0,4.35-3.19,4.34-3.07,0-.62-4.43,1.28-4.94,1.55s0-.79-.87-.48c-2.14.77-.62,1.44-1.13,2,.2-.22-13.26-3.17-14.15-3.25-1.32-.1-9.51-1-10-1.6-.89-1-3.25.06-4.32,1.24-.86.94-7.24,2.35-7.56,3.75-.64,2.92,6.16,3.46,6.68,5.05,0,.12-7.66-.29-8.51,1.72.29-.69,2.15,2.21,2.34,2.28.87.33,5.56-.67,5.58-.64,1.31,1.3-1.54,3.06-2.24,3.72s-.92-.48-1.93.84a16.87,16.87,0,0,1-1.91,1.56c.21-.2,1.55,2.77,1.58,2.8.81.71,3.3.7,3,.41.78.78-.07,2.42.65,2.8.49.26,2.19.06,3.13.44-.84-.34,2.57-1.48,2.37-.88-.47,1.41-6,8.21-6.87,7.31,1,1.08,11.06-5.72,11.06-7.33a2.82,2.82,0,0,0-.93-.51c-.22-.57,5.45-5.3,5.25-3.46,0-.19-3.39,2.58-2.6,3.3.23.21,4-1.09,4.58-1.31s-1.37-1.91,0-2.16c.45-.08,2.24,1,2.32,1a.63.63,0,0,0-.8.5c.17.54,8,.19,8.5.63-.24-.21,5,4.34,5,3.07a2.1,2.1,0,0,1-.17-1.45c2.51,1.83-1.17,2.33-1.17,2.22,0,.12,1.91,2.81,1.85,2.84.36-.19-.49-2.43.08-2.22a1.72,1.72,0,0,1,.16.9c.63.81.74-1.84.66-1.64.14-.36.2,3.47-.2,3.42-.58-.08,3.34-.34,2.18.22.37-.18-1.43-1.24-.43-1.32,1.52-.13.33,1.29-.7,1.38a14,14,0,0,0,.18,2.23c.32.22,1.71-1.09,2.42-1s.59,2.73,1,3.27c.28.39,2.24,2.36,2.5,2.68a20.84,20.84,0,0,0,4.12,3.33c-.14-.11,5.16,4.36,2.25,4.36-.11,0-3.16-8.23-6.56-5.83.72-.51,4.57,5,4.81,5.72,1.42,4.07-.91,8.81.67,13.25,1.08,3.05,3.94,5,5.87,7.06a26.46,26.46,0,0,1,3.06,4.64c1.35,2.28,1.65,2.87,1.38,4.18,0,.06,6.1,6.45,5.87,6.62.58-.42-6-12.4-5.86-12.42,2.4-.24,2.61,3.5,3.05,4.19,1.23,1.91,3.46,3.68,4.81,5.41,2.3,2.95,2.6,6,4.65,8.16,1.38,1.41,4.55,2.63,6.39,3.21,2.4.76,4.94.05,6.87,1.94h0c.87.84,2.28.87,2.89,1.5,1.7,1.56,2.4.78,4,2.41,1.08,1.11,1.39,2.12,2,2.72,1,1,2.73,2.9,4.26,3s1.05-1.69,1.82-1.51c3.42.8,2.8,5.39,1.43,8.19-1.5,3-3.41,3.57-1.73,6.64.12.21-1.66,3.11-1.49,4,.33,1.72,4.15,6.78,5,8.55,1.7,3.36,3.88,3.71,6.3,6.46,2.21,2.5,1.51,4.5,1.13,8-.56,5-.7,9.93-1.77,14.79-.42,1.93-4.09,12-2.75,13.94.62.9.88-2.53,1.49-2.71s-.38,7.52-1,7.09c-.32-.22.35-2.49-.49-2.12.76-.34-1.56,3.2-1.57,3.24.09-1,1.2,1.22,1.24,1.58.07.61,1.34-.41,1.27.48.1-1.34-3.81,1.55-2,1.27a4.44,4.44,0,0,0,.84-.64c.27-.06-1.93,2.29-.45,2.53.29,0,.44-1.51.85-1.1.86.86-1.65,2.7-1.06,3.44.12.14,1.35-.56,1.59-.07.07.16-.83.86-.69.91.49.18,1.61-.49,1.83.23s-2.18.05-1.36,1.21c.31.44,2.25-1.41,2.62-.2-.11-.34-2.18,1.1-2.25,1.19a23.08,23.08,0,0,1,2.56-.59c.18.4-2.85,1.57-2.93,1.23.09.38,1.83,1.46,2.11,1.19.47-.48-.62-.25-.24-.75s2.61-1.66,2.73-2a1.32,1.32,0,0,0-.64,1.2,4.63,4.63,0,0,0,1,.06c-.3-.33-.7,1.52-.59,1.46a1.47,1.47,0,0,1-.49-1c-.52-.23-.24,1.09-.32,1a.7.7,0,0,0-.84-.47c.43-.6-.54,1.84-.54,1,0-.46,1.48,1.35,1.44,1.33a3.08,3.08,0,0,0,.42-1,24.07,24.07,0,0,0,2.44,1.69c.45.13-.33-1.07-.07-1a14.84,14.84,0,0,0,3.52-.73c-1.62-.59-3.63-3.51-3.93-3.58h0c-.26-.06-1.18.13-1-.5s1,.23,1.24,0-1-2.15-.77-2.73c.41-.91,1.13-1.16,1.59-2,.62-1.13,2.14-2,2.24-3.25.08-1-1.43-1-1.36-1.29a16.2,16.2,0,0,1,2.11-5.18c.43-.54,1.88-2,1.87-2-.35-.3-3.13-.05-1.67-2.26-.46.69,3.32-.61,3.13-.5.52-.29-.08-2,.19-2.32,1.29-1.37,6,.61,6.58-3.05.12-.81-2.11-3.63-2.16-3.58.76-.78,4.27.9,6.21-1.14.48-.51,2.89-4.77,2.88-4.64a7.94,7.94,0,0,1-1,1.77c0-.85,2.84-3.18,3.2-4.16.52-1.41-.12-3.23.61-4.51,1.47-2.57,4.74-2.07,6.56-3.22,2.34-1.48,3-3.61,3.73-6.37.44-1.7,0-6,.86-7.36C191.42,298.86,200.65,288.7,194.89,289Z"
            style="fill: none; stroke: rgb(178, 178, 178); stroke-miterlimit: 10; transform-origin: 118.851px 263.076px;"
            id="el4zox0ug1gk2" class="animable"></path>
        <path
            d="M150,256.2c1.33-1.82-13.78-5.07-11.89-2.31-.9-1.32,6,.44,6.35.62C145.63,255.16,148.38,258.41,150,256.2Z"
            style="fill: none; stroke: rgb(178, 178, 178); stroke-miterlimit: 10; transform-origin: 144.015px 254.891px;"
            id="elwoaz3jhsz6j" class="animable"></path>
        <path d="M145.2,258.69c.21.39,2.16.95,2.37.45S145,258.2,145.2,258.69Z"
            style="fill: none; stroke: rgb(178, 178, 178); stroke-miterlimit: 10; transform-origin: 146.386px 258.907px;"
            id="elwux8507l4ni" class="animable"></path>
        <path d="M158.42,258.8c.46.79,1.79.32,1.9,0C160.53,258.23,158,258,158.42,258.8Z"
            style="fill: none; stroke: rgb(178, 178, 178); stroke-miterlimit: 10; transform-origin: 159.353px 258.758px;"
            id="el7ks0d9357op" class="animable"></path>
        <path d="M165.77,356.08c.62.34,1.91-1.35,1.34-1.46S165.19,355.76,165.77,356.08Z"
            style="fill: none; stroke: rgb(178, 178, 178); stroke-miterlimit: 10; transform-origin: 166.44px 355.369px;"
            id="el3stjclq8bc3" class="animable"></path>
        <path d="M167.32,356.19c.41.23,2.1-.54,1.9-.95C168.81,354.39,166.91,356,167.32,356.19Z"
            style="fill: none; stroke: rgb(178, 178, 178); stroke-miterlimit: 10; transform-origin: 168.249px 355.613px;"
            id="elgwdl5evsufj" class="animable"></path>
        <path d="M130.08,282.32c-.51.84.51,1.67.72,1.29S130.6,281.47,130.08,282.32Z"
            style="fill: none; stroke: rgb(178, 178, 178); stroke-miterlimit: 10; transform-origin: 130.397px 282.898px;"
            id="el1jav4a09ztx" class="animable"></path>
        <path d="M176.25,174.54c.12-2-3-1-3.47-1S176.11,177,176.25,174.54Z"
            style="fill: none; stroke: rgb(178, 178, 178); stroke-miterlimit: 10; transform-origin: 174.497px 174.357px;"
            id="elngvvyj73cwj" class="animable"></path>
        <path
            d="M211.19,173.15c-.38.22-5-.49-5-.41.13-.31,1.67-2.08,1.47-2.15,1,.38,3.91,3.82,4,.63.08-1.89-2.58-1.9-3-3.41-.13-.43,3.54,1.18,2.81-1.09-.41-1.28-4,.92-3.87-.46,0,.47,1.24-1.7,1-1.45,1.15-1.27,6.35,3.08,3-1.28-.14-.18,3-.12,3.18-.77s-3.15-.55-2.4-1.79c.94-1.55,3.3.7,1.78-2.46.05.1-3.81-1.21-3.22-1.79s5.13-.05,5-.7c-.44-1.65-2.68.09-2.86-1.33-.1-.74,1.36,0,1.57-.37.83-1.3-3.54-.26-3.38-.14-1.18-.91,4.83-6.52,5-6.28-1.11-1.47-2.12,1-2.9.21s4.35-1.41,4.5-1.5c.43-.28-2.74-.94-2.88-.7.55-.95,7.95-.83,7.95-2.87,0-2.75-7-.12-7.81.14-.61.19-1.5-.61-1.93-.45-1.41.54-2.7,2.83-4.22,3.05,1.48-.22,3.16-3.8.75-4.23-.38-.06-4.47,3-4.72,2-.21-.73,2.46-1,2.4-1.66-.13-1.26-8.7.72-8.71.53-.13-1.74,11.92-1,13.13-2.67.68-.9-15.32-3.49-16.77-3.12-.36.09-2.54.87-2.77.9a12.26,12.26,0,0,0-1.51-.08c-2.72.31-5.38.13-8.09.65-.34.06,1.18,1.08,1.16,1.16s-2.38.25-2.06.68a24.52,24.52,0,0,1,3.11,2.48c-1.91.4-5.42-4-7.36-2.56-.47.35,1.41,1.5,1.41,1.77,0,1.06-3.85-1.2-3.74-1.2-.29,0-.18,2.3-.72,2.64,1.66-1-2.05-2.49-2.63-2.55a3.08,3.08,0,0,0-3.06,1.77c-.87.3-2.14-.75-3.26-.3-.8.33.7,1.67-.4,2.29-.3.16-8.07.35-7,2.77.79,1.83,5-.09,1.26,3-1,.83-4,.49-5.24,1.36-5.95,4.06,5.5,1.38,5.39,3.65,0,.25-6.08.26-6,.82.16.82,4.26,2.72,5.35,2.82,2.21.21,4.33-1.44,7.28,0a11.46,11.46,0,0,1,6,6.68c.9,3.37-1.24,3.8,2.29,3.8a20.22,20.22,0,0,0,3,3.24c-.12.11-3.94-1.5-3.94-.54,0,2.28,5.33.62,3.91,4.66-.22.61-1.9-.24-2.4,1a6.15,6.15,0,0,0-.6,2.6c-.09,1.63,2.37,7.29,4.18,9.78,1.45,2,2.31,2.3,4.37,3.22,3.22,1.45,2.47,1.63,4.28-1.06.71-1.05-.37-2.08-.09-2.89.15-.43,1.54-.42,1.74-1.33.27-1.19.11-3.14.26-3.66a2.47,2.47,0,0,1,1.14.15c.16-.09,2.16-2.78,2.4-2.78a.86.86,0,0,1,.15,1.09c.38,1.22,5-2.87,5.07-2.94,1.75-1.27,1.5-1.36,3.06-2.05C204.47,176.11,208.37,174.82,211.19,173.15Z"
            style="fill: none; stroke: rgb(178, 178, 178); stroke-miterlimit: 10; transform-origin: 187.692px 165.387px;"
            id="el7ojmjyzdf2u" class="animable"></path>
        <path
            d="M94,159.09c1-.55,1,0,1.75-.79a3.47,3.47,0,0,0,.82,1c1.19,0,1.67-2.55,2.42-2.7s.22,2.27,1.94.61c.65-.63.5-1.21,1.14-1.91a16.08,16.08,0,0,0-4.14.11C96.52,155.91,94,159.12,94,159.09Z"
            style="fill: none; stroke: rgb(178, 178, 178); stroke-miterlimit: 10; transform-origin: 98.035px 157.258px;"
            id="el0vyn8jvlzev" class="animable"></path>
        <path
            d="M101.64,158.07c-1.72.14.94,1.26.85,1a3.84,3.84,0,0,0-2,.58c-.31.44,1.73.28,1.5.36a3.71,3.71,0,0,0-2.06.74c1.1,1.6,3,.08,3.84-.47-.45.29,2.67,1.05,2.88.73-.3.46-3.23.86-3.18,1.34.16,1.52,5.86-.51,6.7-.87,2.83-1.23,3.66-.24,2.33-2.68.11.2-3.05-2-3.55-1.73-1.48.77.87,2.3.55,2.83-.84,1.39-3.7-1.56-4.37-1.74A7.45,7.45,0,0,0,101.64,158.07Z"
            style="fill: none; stroke: rgb(178, 178, 178); stroke-miterlimit: 10; transform-origin: 106.524px 159.977px;"
            id="elos7cuzyreso" class="animable"></path>
        <path
            d="M120.88,170.2c2.08,1.56,4.5-4.28,3.2-4.36a1,1,0,0,0-.25,1.23c.15-.31-1.71-.94-1.67-.87-.4-.63,2.64-1.2.67-2.54-1.46-1-1.29.85-1.27.84.26-.12-4.37-.53-2.9.79a7.87,7.87,0,0,0,1.52.3c1.74,1.51-3,.7-2.54.61C116.24,166.45,120.45,169.88,120.88,170.2Z"
            style="fill: none; stroke: rgb(178, 178, 178); stroke-miterlimit: 10; transform-origin: 120.901px 166.914px;"
            id="eluounoe5l28m" class="animable"></path>
        <path
            d="M91.71,169.18a24.38,24.38,0,0,1,1.65,2c1.25,0,2.57-1.82,3.19-2.28,1.62-1.21,3.91-2.4,5.55-3.75.61-.5-7.46-2.82-8.51-2.49-3.39,1.06-.44.34-1.54,2.2-.34.57-2.16,3.57-1.93,3.85A4,4,0,0,0,91.71,169.18Z"
            style="fill: none; stroke: rgb(178, 178, 178); stroke-miterlimit: 10; transform-origin: 96.1164px 166.904px;"
            id="elxaz9vz5oisf" class="animable"></path>
        <path d="M97.89,159.94c.92.11,1.85-.79,1.8-1.3S97.43,159.88,97.89,159.94Z"
            style="fill: none; stroke: rgb(178, 178, 178); stroke-miterlimit: 10; transform-origin: 98.7595px 159.248px;"
            id="elc13r5peqc0q" class="animable"></path>
        <path
            d="M152.45,171.21a1,1,0,0,0,1-1c.23.74-3.87-1.41-4.24-1.53-.91-.31-.35-1.15-1.82-1.48-1-.23-2.55,1.27-2.5,1.28-1.37-.48-.8.09-2.34.09-1.14,0,.79-6.21-4.16-3.23-3,1.79-.5,2.75-.37,4.64,0,.32-2.22-.66-2.13-2.1s1.72-2.49,1.72-3.31c0-1.52-5.37,1.85-5.63,3-.36,1.6,1.95,4.8,2.89,3.55-.24.32-2.51-.3-2.45.3.33,3.28,12.15,1.23,12.4,1.9a1.36,1.36,0,0,1-.6-.91c.16-.55,4.16,2.48,4.19,2.73a3.4,3.4,0,0,0-1.13,1.07c.76.65,1.61-.64,2.88.68,1.43,1.49,1.41,1.18,1.75,3.44.07.47,4.35-.91,3.57,1.07s-1.9-.51-2.47-.33-2,.23-2.8.47c-.13,0,.4,1.47.46,1.44-1.2.59-3.17.07-4.09.86-3.41,2.92,3.65,1.15,4.61,1.45s6.85,7.51,8.38,5.42c.38-.53-2.59-3.75-3.14-3.59,2.25-.65,5.56,3.08,4.38-.7-.53-1.68-4.52-3-2.78-5.07.73-.88,3.76,2.83,4.27,2.82,0,0,3-3.13,3-3.11,0-2.09-8.23-3.22-8-5.24a4.65,4.65,0,0,1,1.59-.4,2.69,2.69,0,0,0-1.33-.73c-.15-1.24,1.31-1.18-.78-1.18,1.52,0-2.1-1.65-2.23-1.69C154.1,171.68,152.45,171.21,152.45,171.21Z"
            style="fill: none; stroke: rgb(178, 178, 178); stroke-miterlimit: 10; transform-origin: 148.621px 177.636px;"
            id="elcppzn4w5hmw" class="animable"></path>
        <path d="M81.74,205.61c-.95.56,1.2,3.19,1.77,2.79C83.69,208.28,83.15,204.8,81.74,205.61Z"
            style="fill: none; stroke: rgb(178, 178, 178); stroke-miterlimit: 10; transform-origin: 82.5222px 206.965px;"
            id="el4qha8ceqdbo" class="animable"></path>
        <path d="M115.89,161.06c.36-.45-.77-1.41-1.08-.62S115.52,161.52,115.89,161.06Z"
            style="fill: none; stroke: rgb(178, 178, 178); stroke-miterlimit: 10; transform-origin: 115.356px 160.709px;"
            id="eld3pochr0hxv" class="animable"></path>
        <path d="M143.66,191.29c.36,0,1.08-1.46.15-1.41S143.1,191.38,143.66,191.29Z"
            style="fill: none; stroke: rgb(178, 178, 178); stroke-miterlimit: 10; transform-origin: 143.721px 190.586px;"
            id="el22wmky8njep" class="animable"></path>
        <path d="M148.8,179.28c2.81-.52-2.71-2.54-1.79-1.76C147.6,178,145.42,179.9,148.8,179.28Z"
            style="fill: none; stroke: rgb(178, 178, 178); stroke-miterlimit: 10; transform-origin: 148.23px 178.373px;"
            id="el5kklh0ykydw" class="animable"></path>
        <path d="M139.13,190.05c.83.57,2.06-1,2-1.41S138.14,189.37,139.13,190.05Z"
            style="fill: none; stroke: rgb(178, 178, 178); stroke-miterlimit: 10; transform-origin: 140.029px 189.363px;"
            id="el8n0xunkazao" class="animable"></path>
        <path
            d="M129.26,161.18c.46,1.46,12.22,2,13.58,1.07,5.43-3.94-11.51-2-11.28-3.25a4.87,4.87,0,0,1,.94-.93c.42-.55-9.22-2.5-8.49-1.35C126,159.83,127.9,156.91,129.26,161.18Z"
            style="fill: none; stroke: rgb(178, 178, 178); stroke-miterlimit: 10; transform-origin: 133.942px 159.537px;"
            id="elpfsbyudc1jo" class="animable"></path>
        <path
            d="M117.43,173.81c.28-.36,1.6.73,1.65-.06,0-.55-3.92-3.34-4.27-4.23a22.46,22.46,0,0,1-.26-3.64c.47-.42.42-.86-.16-1.32a2.13,2.13,0,0,0-2.26.56,6.9,6.9,0,0,1,1.44,1.36c0-.26-2.57-1.2-2.83-.68-.36.72,1.17,3.36.68,3.61-.09.05-3.46-3.8-3.66-2.93a4.09,4.09,0,0,1,.87,1.07c0,.14-1.87,0-1.76.32-1.36-3.58-2.47.71-3.71-.45-.12-.12,2.11-1.82-.52-1.83-1,0-3.61,1.46-4,2.31-1.53,3.64,1.9,1,3.33,2.07.08.07-3,.87-3,1.3,0,1.9,7.35-.2,7.35,1.41,0,.4-6.62,0-6.38,1.07.68,3,9.1,2.38,10.8,2.14a13.46,13.46,0,0,1,2.75-.37c.57,0,5.28,1.62,4.71-.3-.45-1.5-1.53.45-1.9-.57A4.11,4.11,0,0,1,117.43,173.81Z"
            style="fill: none; stroke: rgb(178, 178, 178); stroke-miterlimit: 10; transform-origin: 108.668px 170.3px;"
            id="el592yisajsmr" class="animable"></path>
        <path d="M161.66,212.61c.1.45,3.09,1.8,3.19,1.18S161.57,212.22,161.66,212.61Z"
            style="fill: none; stroke: rgb(178, 178, 178); stroke-miterlimit: 10; transform-origin: 163.255px 213.234px;"
            id="ele4vatje1qj" class="animable"></path>
        <path d="M131.88,154.52c-.92-.51-2.09.57-1.13,1S132.81,155,131.88,154.52Z"
            style="fill: none; stroke: rgb(178, 178, 178); stroke-miterlimit: 10; transform-origin: 131.312px 155.007px;"
            id="elb70sx4q8jii" class="animable"></path>
        <path d="M123.86,153.79c6,0-1.09-3.37-1.49-2.71S123.15,153.79,123.86,153.79Z"
            style="fill: none; stroke: rgb(178, 178, 178); stroke-miterlimit: 10; transform-origin: 124.275px 152.392px;"
            id="el2ymaaodmgyu" class="animable"></path>
        <path
            d="M124.48,148.21s4.77,2.2,4.52,1.46c.13.38-2.18.94-2.06,1.07a6.29,6.29,0,0,0,6,2.15c.15,0,4.44-3.87,4.32-3.22-.17,1-3.17-3-3.34-3.16s-6.53-3.48-7.15-3a1,1,0,0,0,.77.67c0,.35-1.57.07-1.71.36.29.23.57.46.85.71-.32.6-2.12-.29-2,.9a3.94,3.94,0,0,0,1.4,1.07C126.11,147.85,122.67,147.21,124.48,148.21Z"
            style="fill: none; stroke: rgb(178, 178, 178); stroke-miterlimit: 10; transform-origin: 130.608px 148.231px;"
            id="el2zo3ugkhq7o" class="animable"></path>
        <path d="M142.37,164.62c-1.29,3.07,5.25,2.36,5.25,1.69C147.62,165.28,142.74,163.74,142.37,164.62Z"
            style="fill: none; stroke: rgb(178, 178, 178); stroke-miterlimit: 10; transform-origin: 144.911px 165.626px;"
            id="eltpnjpid0b3n" class="animable"></path>
        <path d="M128,154.07c-.1-.34-4,.18-3.39.68C125.66,155.59,128.13,154.41,128,154.07Z"
            style="fill: none; stroke: rgb(178, 178, 178); stroke-miterlimit: 10; transform-origin: 126.275px 154.504px;"
            id="elg8fsmrr2noq" class="animable"></path>
        <path d="M104.31,154c.26-.67-1.7-.56-1.54-.33C103.13,154.18,104.06,154.69,104.31,154Z"
            style="fill: none; stroke: rgb(178, 178, 178); stroke-miterlimit: 10; transform-origin: 103.547px 153.914px;"
            id="el1ql30n8jmwm" class="animable"></path>
        <path d="M126.89,160.16c-.83-.68-3.27,1-2.93,1.24C125.29,162.54,129.92,162.65,126.89,160.16Z"
            style="fill: none; stroke: rgb(178, 178, 178); stroke-miterlimit: 10; transform-origin: 125.914px 161.087px;"
            id="el2xecjqshr6r" class="animable"></path>
        <path d="M115,155.65c.41-.56-1.64-2.37-1.75-1.52S114.57,156.25,115,155.65Z"
            style="fill: none; stroke: rgb(178, 178, 178); stroke-miterlimit: 10; transform-origin: 114.149px 154.856px;"
            id="elk9j3hct8u9" class="animable"></path>
        <path
            d="M119.54,156.61c-1.22-.52.52,1.85.33,1.8a4.72,4.72,0,0,0-2-.91c-.44.35.63,1.42.27,1.6-.55.26-1.9-2.33-2.66-2.38-1.65-.09.57,2.32.65,2.37,1.37.83,2.45.19,3.82.56-.19-.05,1.52,4.36,3.13.46C124.3,157.27,120.92,157.2,119.54,156.61Z"
            style="fill: none; stroke: rgb(178, 178, 178); stroke-miterlimit: 10; transform-origin: 119.106px 159.129px;"
            id="elb4e07w8u3au" class="animable"></path>
        <path d="M108.58,153.73c.89-.15-3.65-1.23-3.65.51C104.93,157.18,108.6,153.73,108.58,153.73Z"
            style="fill: none; stroke: rgb(178, 178, 178); stroke-miterlimit: 10; transform-origin: 106.813px 154.344px;"
            id="el0t4gxxl7zlgf" class="animable"></path>
        <path d="M106.06,152.66c.42.18,3.35.15,3.35-.45,0-2.18-4.85.24-4.74.34A5,5,0,0,0,106.06,152.66Z"
            style="fill: none; stroke: rgb(178, 178, 178); stroke-miterlimit: 10; transform-origin: 107.039px 152.03px;"
            id="el90aq1kvjc9v" class="animable"></path>
        <path d="M121.7,148.26c.36-.68-2.17-1.21-1.54-.62C120.52,148,121.34,148.94,121.7,148.26Z"
            style="fill: none; stroke: rgb(178, 178, 178); stroke-miterlimit: 10; transform-origin: 120.897px 147.943px;"
            id="elxmxb6e049un" class="animable"></path>
        <path
            d="M114.65,150.91c.83-.27,1.34,0,1.55.79-.11.25-1.91.17-1.86.34s9.9,4,4.89-1a5.13,5.13,0,0,0-2.37-1.27C112.47,149.3,115,150.65,114.65,150.91Z"
            style="fill: none; stroke: rgb(178, 178, 178); stroke-miterlimit: 10; transform-origin: 117.444px 151.637px;"
            id="elv2gnz9gy6t9" class="animable"></path>
        <path d="M142.84,187c.1-.59-5-4.1-5.3-4.06-.48.06-2.88,3.27-2.57,4.28S142.89,186.68,142.84,187Z"
            style="fill: none; stroke: rgb(178, 178, 178); stroke-miterlimit: 10; transform-origin: 138.892px 185.253px;"
            id="elhvk4robsj7q" class="animable"></path>
        <path
            d="M130.7,142.62c1.85-1.3.32.55.34.57a5.77,5.77,0,0,1,1.09.18c-2,2.41,3.83,2,3.8,1.56.26,3.75,7.51-1.25,8.38-.63,1.68,1.19-4.39,2.36-4.25,2.56,0,0,1.95,1.65,1.71,1.67-1.16.08-7.19-4.21-6.17-.39.24.89,5,2.71,5,3.56,0,0-6-1.78-6.12.79-.09,1.63,3.3-.29,3.34-.19-.53-1.17.52,3.66.52,2.73,0,1.09-4.63-2.84-4.44-.68a9.29,9.29,0,0,0,1.37,1.06c0,.38-4,.7-3.05,1.65s13.17,1.43,13.78-.05-4.53-1.07-4.78-1.46c.73,1.13,4.59-2,4.85-2.18,1.92-1.06,2.72.49,3.74-2.51.3-.9-3.33-.93-3.3-1,2.12-1.5,4.91-.89,6.84-1.86,1.17-.58,8.11-4.17,8.19-4.7s-3.26-.14-3.45-.22c1.6.7,7.29-3.07,7.36-3-.45-.14-7-2.38-7.14-.69a2.52,2.52,0,0,1,1.07-.89c-1.3.52-7.75.17-8.63.22-3,.16-5.83-.39-8.43.33-.53.14-12.65,4.12-12.88,3.68A1.16,1.16,0,0,0,130.7,142.62Z"
            style="fill: none; stroke: rgb(178, 178, 178); stroke-miterlimit: 10; transform-origin: 147.445px 148.227px;"
            id="el7h8ev49ksjk" class="animable"></path>
        <path
            d="M171.79,210.22a6.42,6.42,0,0,0-2.47,2.86c-.12.27-2.39,2.54-1.47,3.08,2.08,1.23,4-1.86,4.22.87-.08-.91,3,.34,3.15.07-.06.12-.91-2.36-.5-2.18s-4.1-3-4-2.42A5,5,0,0,1,171.79,210.22Z"
            style="fill: none; stroke: rgb(178, 178, 178); stroke-miterlimit: 10; transform-origin: 171.426px 213.68px;"
            id="elcky3ati9tte" class="animable"></path>
        <path d="M41.62,206.63c.62-.28.87-.62.62-1S41.14,206.85,41.62,206.63Z"
            style="fill: none; stroke: rgb(178, 178, 178); stroke-miterlimit: 10; transform-origin: 41.9058px 206.111px;"
            id="eldrk3s694pr" class="animable"></path>
        <path d="M46,204.09c-.71-.28-1.44.87-1.54.85C44.13,204.89,46.68,204.37,46,204.09Z"
            style="fill: none; stroke: rgb(178, 178, 178); stroke-miterlimit: 10; transform-origin: 45.2731px 204.493px;"
            id="elgh4ig5q4jcl" class="animable"></path>
        <path d="M58.13,197.83c-1.18,1.49-2.15,4.35.37,1.81C58.87,199.26,59.41,196.22,58.13,197.83Z"
            style="fill: none; stroke: rgb(178, 178, 178); stroke-miterlimit: 10; transform-origin: 57.927px 199.008px;"
            id="el4thrfxxmqio" class="animable"></path>
        <path d="M42.65,194.14c-.49-.29-.83-.16-1,.39a1.6,1.6,0,0,0,1.62.54C45,194.43,42.64,194,42.65,194.14Z"
            style="fill: none; stroke: rgb(178, 178, 178); stroke-miterlimit: 10; transform-origin: 42.777px 194.553px;"
            id="elzd82n5ixfo8" class="animable"></path>
        <path d="M240.9,228.57c-.09-.64-1.26.19-1,.38C240.4,229.32,241,229.21,240.9,228.57Z"
            style="fill: none; stroke: rgb(178, 178, 178); stroke-miterlimit: 10; transform-origin: 240.387px 228.746px;"
            id="el26blnj4coja" class="animable"></path>
        <path d="M267,235c0-.41-3.33,0-3.26,0C263.33,234.92,267.1,236.05,267,235Z"
            style="fill: none; stroke: rgb(178, 178, 178); stroke-miterlimit: 10; transform-origin: 265.355px 235.134px;"
            id="eliogbtyfbvar" class="animable"></path>
        <path d="M275.7,235.43a13,13,0,0,1,.85-1.08,10.64,10.64,0,0,0-2.63.92C273.46,236.13,275.8,236,275.7,235.43Z"
            style="fill: none; stroke: rgb(178, 178, 178); stroke-miterlimit: 10; transform-origin: 275.205px 235.118px;"
            id="elj9kt83gy0to" class="animable"></path>
        <path
            d="M219.28,185.93c3.67-.2.22-5.75-1.52-4.73-.4.23-3,1.66-3.43,1.52a1,1,0,0,0-.82-.63c-2.28,2.69.09-.78-3.06-.78-.66,0,.34.93.16.91-.63-.07-1.6-.27-1.75.93-.07.52,2.61.4,2.52.3s-.26,1-.18.91-2.15.09-2,.47c.07.13,1.9.18,2.22.56.58.67-.63,1.51-.76,1.37C212.89,189.17,216.92,186.07,219.28,185.93Z"
            style="fill: none; stroke: rgb(178, 178, 178); stroke-miterlimit: 10; transform-origin: 214.882px 184.375px;"
            id="elhjvyjbeluzu" class="animable"></path>
        <path
            d="M226.09,209.7c3,0,3.89-2.2,3.59-4.52-.1-.8,1.54-.93-.3-1.92a7.24,7.24,0,0,0-2.4.51c-.06,1.64.12.19-1.63,1.15C225.3,205,225.34,209.7,226.09,209.7Z"
            style="fill: none; stroke: rgb(178, 178, 178); stroke-miterlimit: 10; transform-origin: 227.797px 206.48px;"
            id="el4fx3camhn7" class="animable"></path>
        <path d="M235.45,194.43c.29-.32.63-1.54.19-1.41S235.32,194.57,235.45,194.43Z"
            style="fill: none; stroke: rgb(178, 178, 178); stroke-miterlimit: 10; transform-origin: 235.591px 193.725px;"
            id="elicm3tbb1c0a" class="animable"></path>
        <path d="M229.58,197.38c-.22-.24-1.11,1.14-.77,1.13S229.81,197.63,229.58,197.38Z"
            style="fill: none; stroke: rgb(178, 178, 178); stroke-miterlimit: 10; transform-origin: 229.181px 197.931px;"
            id="el2rpaul5bxuc" class="animable"></path>
        <path
            d="M229.29,199.07c1.12-1,.07,3.77.07,3.16,0-.85,1.47.42,1.31.45a1.86,1.86,0,0,0,.66-1c.52.08-.34,2-.32,2.16.09.77,2-.47,2.07-.28,1.22,2.13-1,3-.91,4.43a1.64,1.64,0,0,0-1.25,1.3,15.31,15.31,0,0,0,2.87.41c.05.35-4,1.2-3,2.54,0-.05,7.38-1.62,7.82-2.07s-.76-.15-.72-.47c.19-1.49,1.35-.79.72-2.42a4,4,0,0,1-1.44-1.12c-.83-1.4-1.64-4.41-3.65-4.26,0,0,1.29-2.15,1.15-2.48-.56-1.44-1.63.2-2.43-.76-.27-.33,1.65-1.6,1.09-2.13C232.88,196.15,229.38,199,229.29,199.07Z"
            style="fill: none; stroke: rgb(178, 178, 178); stroke-miterlimit: 10; transform-origin: 234.043px 204.368px;"
            id="elh0tf5juvyxj" class="animable"></path>
        <path d="M250.31,203.72c-.22-.06,2.92-.85,1.43-1.86C250.46,201,250.19,203.69,250.31,203.72Z"
            style="fill: none; stroke: rgb(178, 178, 178); stroke-miterlimit: 10; transform-origin: 251.213px 202.705px;"
            id="el3byo91mldk9" class="animable"></path>
        <path d="M258.63,198.4c-.66,0-1,1.42-.79,1.65S259.28,198.38,258.63,198.4Z"
            style="fill: none; stroke: rgb(178, 178, 178); stroke-miterlimit: 10; transform-origin: 258.298px 199.235px;"
            id="elp7dx4j6r4hb" class="animable"></path>
        <path d="M262.26,198a3.35,3.35,0,0,0,1.2-.86C264.3,196.23,261,198.1,262.26,198Z"
            style="fill: none; stroke: rgb(178, 178, 178); stroke-miterlimit: 10; transform-origin: 262.784px 197.447px;"
            id="el0syfnhny6fwj" class="animable"></path>
        <path d="M263.24,196.37c.14-.29-1-.16-.74.09A.48.48,0,0,0,263.24,196.37Z"
            style="fill: none; stroke: rgb(178, 178, 178); stroke-miterlimit: 10; transform-origin: 262.857px 196.4px;"
            id="elnbalfoatkr" class="animable"></path>
        <path
            d="M258.2,147.44c1,.84,2.88-.12,4.09.62-.06,0-2.43.88-2.42.91.58,1.53,9.1.75,8.51-1.61-.07-.29-5.54-1.05-5.32-1.13a1,1,0,0,0-.21,1.24c-.45.33-2.65-1.47-3.14-1.41a3.57,3.57,0,0,0-.74,1c-.3-.22-.59-.45-.88-.68C257.08,146.4,258.06,147.33,258.2,147.44Z"
            style="fill: none; stroke: rgb(178, 178, 178); stroke-miterlimit: 10; transform-origin: 263.024px 147.909px;"
            id="elwgtydbq9gtk" class="animable"></path>
        <path
            d="M251.07,149.73c-1.73-.4.92,2.7,1.34,2.94.8.46,1.44-1.5,2-1.73s-.24,1.08.32,1a4.6,4.6,0,0,1,1.23-.52c.51.78-3.66,2.29-3.08,2.43,1.05.26,2.17-.41,3.26-.15a16.64,16.64,0,0,0-3.19,1c-.11,1,1.84,1,2.29,1.15a.78.78,0,0,1-.57.48c-.26.36,1.45.53,1.72.37a25.43,25.43,0,0,0,1.81-2.76c.2-.26,1.86-4.22,2.89-2.6-.28-.43.42,3.46.05,3.38.43.1,4.36.76,4.2-1.07.08.94-4.07-3-4-3-1.29-1.06-3.22-1.23-4.13-1.45.53.13-.86-1.73-1.52-1.95-1-.31.21,3.43.28,3.13.88-3.85-2.68-.83-2.65-.84a7.5,7.5,0,0,0-1.08-.94,4.36,4.36,0,0,1,1-.39C253,148.44,246.64,148.7,251.07,149.73Z"
            style="fill: none; stroke: rgb(178, 178, 178); stroke-miterlimit: 10; transform-origin: 257.425px 151.996px;"
            id="el3v01g8dz879" class="animable"></path>
        <path d="M250,152a4.42,4.42,0,0,0,.82.62c-.38,0-.8-2-1.54-1.75A1,1,0,0,0,250,152Z"
            style="fill: none; stroke: rgb(178, 178, 178); stroke-miterlimit: 10; transform-origin: 250.043px 151.734px;"
            id="elhy6pnfg69cn" class="animable"></path>
        <path d="M456.48,187.74a2,2,0,0,0-1.44.49c.23.28,3.57,1.06,3.57.3A3.24,3.24,0,0,0,456.48,187.74Z"
            style="fill: none; stroke: rgb(178, 178, 178); stroke-miterlimit: 10; transform-origin: 456.825px 188.295px;"
            id="elh8jgoogeo8r" class="animable"></path>
        <path
            d="M399.91,223.16c-.17-1.15-2.74,3.76-1.45,3.05-.22.12,1.07-.73,1-.54-.22-.32-.45-.63-.69-.94,0,.28,7.4.22,7-3,.2,1.74-6.19-1.14-5.43-1.64C400.47,220.05,399.88,223,399.91,223.16Z"
            style="fill: none; stroke: rgb(178, 178, 178); stroke-miterlimit: 10; transform-origin: 401.942px 223.185px;"
            id="elefckmihohaf" class="animable"></path>
        <path
            d="M386.23,239c.37.74.7-1,.9-.14,0,.13-.49,2.78.37,2.59.69-.15,2-2.68.87-3.14C388.14,238.19,385.3,237.12,386.23,239Z"
            style="fill: none; stroke: rgb(178, 178, 178); stroke-miterlimit: 10; transform-origin: 387.428px 239.679px;"
            id="elddnqwotanwh" class="animable"></path>
        <path
            d="M390.31,238.68c.25-1.11,1.78.21,1.78-1.54,0-.93-1.85,0-1.91.16C389.94,237.86,390.06,239.78,390.31,238.68Z"
            style="fill: none; stroke: rgb(178, 178, 178); stroke-miterlimit: 10; transform-origin: 391.07px 237.873px;"
            id="elb3hy92ajd6d" class="animable"></path>
        <path
            d="M392.84,234.89s-5.65.25-5.21,2.23c.06.26,4.76-.44,5.1-.52-1.06.25,1,.75,1.25.73.8-.06.19-1.16.34-1.26.89-.54,3.6.5,4.53-.77.72-1,2.37-7.8,1.09-8.54-1.61-.92-2.4,4.26-3.16,5.31C396.19,232.9,393,233.13,392.84,234.89Z"
            style="fill: none; stroke: rgb(178, 178, 178); stroke-miterlimit: 10; transform-origin: 394.009px 231.991px;"
            id="el27y1okf5x71" class="animable"></path>
        <path d="M363.67,258.23a11,11,0,0,0,.61-1.5c-.13-.52-3-.13-2.45,1C361.9,257.85,363.52,260.13,363.67,258.23Z"
            style="fill: none; stroke: rgb(178, 178, 178); stroke-miterlimit: 10; transform-origin: 363.02px 257.743px;"
            id="elsoc4l81f3fn" class="animable"></path>
        <path d="M375.7,253.68c.56-.42,1.89-3.29,1.44-3.94C375.66,247.57,374.43,254.66,375.7,253.68Z"
            style="fill: none; stroke: rgb(178, 178, 178); stroke-miterlimit: 10; transform-origin: 376.201px 251.549px;"
            id="eli946o88cnb9" class="animable"></path>
        <path
            d="M374.64,261.54c-.79,2.62,7.66,6.12,5.91,8.12,2.81-3.22-3.22-4.53-3.84-6s2.17-3.58,0-4.84C375.25,257.94,374.67,261.43,374.64,261.54Z"
            style="fill: none; stroke: rgb(178, 178, 178); stroke-miterlimit: 10; transform-origin: 377.94px 264.169px;"
            id="elbrm0832ucp" class="animable"></path>
        <path d="M373.16,269.74a7,7,0,0,0-1.47,2.1c-.14-.28,3-2.25,2.4-3.49A2,2,0,0,0,373.16,269.74Z"
            style="fill: none; stroke: rgb(178, 178, 178); stroke-miterlimit: 10; transform-origin: 372.926px 270.095px;"
            id="elqyfwt3odyj" class="animable"></path>
        <path d="M375.29,265.38c.1.52.34,1.61,1.1,1.35S375.22,265,375.29,265.38Z"
            style="fill: none; stroke: rgb(178, 178, 178); stroke-miterlimit: 10; transform-origin: 375.928px 266.044px;"
            id="elcmctoqrrsz4" class="animable"></path>
        <path d="M380.12,269.89c-.27-.38-.95.32-.85.6S380.4,270.27,380.12,269.89Z"
            style="fill: none; stroke: rgb(178, 178, 178); stroke-miterlimit: 10; transform-origin: 379.714px 270.176px;"
            id="elga16qkjli46" class="animable"></path>
        <path
            d="M381.26,270.53s-5,3.24-4.15,3.16,1.19-1.26,2.05-.65.34,2.56,2,2.56c-1.23,0,1.31-2.64,1.2-2.18A2.75,2.75,0,0,0,381.26,270.53Z"
            style="fill: none; stroke: rgb(178, 178, 178); stroke-miterlimit: 10; transform-origin: 379.724px 273.065px;"
            id="elig7wua5w5h" class="animable"></path>
        <path
            d="M377.14,267.29a1.25,1.25,0,0,0,.07,1.73c2.15-.47-.76,1.65.89,2C379.54,271.39,379.64,266.75,377.14,267.29Z"
            style="fill: none; stroke: rgb(178, 178, 178); stroke-miterlimit: 10; transform-origin: 377.971px 269.144px;"
            id="elbmrd8nn127e" class="animable"></path>
        <path
            d="M411.77,288.91c0,1.49-3.83.56-3.87,1-.21,2.16,5.88.07,4.63-1.51C412.11,288.3,411.86,288.46,411.77,288.91Z"
            style="fill: none; stroke: rgb(178, 178, 178); stroke-miterlimit: 10; transform-origin: 410.297px 289.603px;"
            id="el91ae745obd4" class="animable"></path>
        <path d="M413.31,288.76c1-.29-.79-1.6-1-1.65C412.61,287.18,413,288.86,413.31,288.76Z"
            style="fill: none; stroke: rgb(178, 178, 178); stroke-miterlimit: 10; transform-origin: 412.961px 287.937px;"
            id="elwoeez1x4x09" class="animable"></path>
        <path
            d="M406.73,291.39c.93.06-3-3.22-3.85-3.73-2-1.13-5.87-2.89-7.87-2.77-.58,0-1.39,1.81-2.1,1.68-1.43-.26-.61-1.78-1.63-2.2-.87-.36-.87-1.34-2.44-1.1-.27,0-1.76,1.22-1.23,1.33.29.07,3.31,1.75,3.33,1.23,0,.24-1.86.22-2,.25-.84.16,3.14,2.11,3.39,2.23,1.76.86,3,.67,4.05,2.46s-1.42,1.69-1,2.5c.74,1.48,6.29.17,6.88.18,1.62,0,1.59-.05,3.61,1,0,0,5,2.51,4.44,1.62C410.06,295.66,405.72,291.33,406.73,291.39Z"
            style="fill: none; stroke: rgb(178, 178, 178); stroke-miterlimit: 10; transform-origin: 398.925px 289.747px;"
            id="el9tfk09w8ojh" class="animable"></path>
        <path d="M329.79,270.15c-.74.09-.76,4.43.1,4.78C332.3,275.9,331.72,269.92,329.79,270.15Z"
            style="fill: none; stroke: rgb(178, 178, 178); stroke-miterlimit: 10; transform-origin: 330.359px 272.59px;"
            id="eluo86dg9s4f" class="animable"></path>
        <path
            d="M293.34,297.9s-1.61,2.8-1.88,3.08c-.72.73-2.63,1.18-3.21,1.84-1.58,1.83-.51,2.65-.79,5.34-.2,1.89-2.43,9.56,2.69,7.07,3-1.44,2.35-9.88,3.45-12.66.15-.36.94.82.93-.71S293.67,299.23,293.34,297.9Z"
            style="fill: none; stroke: rgb(178, 178, 178); stroke-miterlimit: 10; transform-origin: 290.668px 306.811px;"
            id="elyki0051q9vi" class="animable"></path>
        <path d="M298.37,266.49c.39.44,1.14-.07,1.18-.24S297.94,266,298.37,266.49Z"
            style="fill: none; stroke: rgb(178, 178, 178); stroke-miterlimit: 10; transform-origin: 298.925px 266.392px;"
            id="elu4cb7ikc748" class="animable"></path>
        <path d="M421.18,294.86c.11.57.88.91,1.19.71S421.08,294.28,421.18,294.86Z"
            style="fill: none; stroke: rgb(178, 178, 178); stroke-miterlimit: 10; transform-origin: 421.793px 295.16px;"
            id="eleg8bag9zdmn" class="animable"></path>
        <path d="M417.53,291.39c0,.14.8,1,1,.88S417.58,291.14,417.53,291.39Z"
            style="fill: none; stroke: rgb(178, 178, 178); stroke-miterlimit: 10; transform-origin: 418.042px 291.816px;"
            id="elxa91znix86k" class="animable"></path>
        <path d="M421.39,293.65c.28-.2-1.59-1.32-1.62-1S421.11,293.85,421.39,293.65Z"
            style="fill: none; stroke: rgb(178, 178, 178); stroke-miterlimit: 10; transform-origin: 420.594px 293.136px;"
            id="elz6zphhg3r4j" class="animable"></path>
        <path d="M415.34,289.81c-.07.34,1,2.13,1.44,1.85C417.53,291.13,415.41,289.48,415.34,289.81Z"
            style="fill: none; stroke: rgb(178, 178, 178); stroke-miterlimit: 10; transform-origin: 416.139px 290.728px;"
            id="elr61ot2jxnk9" class="animable"></path>
        <path d="M422.39,293.59c-.25.62.77,1.7.93,1.72S422.59,293.12,422.39,293.59Z"
            style="fill: none; stroke: rgb(178, 178, 178); stroke-miterlimit: 10; transform-origin: 422.845px 294.417px;"
            id="el64zftyr3raj" class="animable"></path>
        <path d="M423.29,296.1c0,.14.72.82,1.06.57S423.2,295.86,423.29,296.1Z"
            style="fill: none; stroke: rgb(178, 178, 178); stroke-miterlimit: 10; transform-origin: 423.843px 296.383px;"
            id="elsrpnk62wcxa" class="animable"></path>
        <path d="M386.54,297.91c.26.22,1.55-.06,1.5-.4S386.15,297.57,386.54,297.91Z"
            style="fill: none; stroke: rgb(178, 178, 178); stroke-miterlimit: 10; transform-origin: 387.264px 297.684px;"
            id="eltnfo54tc52" class="animable"></path>
        <path
            d="M413.8,319.59c-.05,0-.62-3.72-.3-3.57-2.19-1-5.38-5.59-7-8-1.19-1.83-1.55-3.76-2.51-6-.49-1.18-1.5-.3-1.85-1.06-.51-1.12,0-3.46-1.11-4.48-.83-.78-1.27,5.59-1.28,5.61-1.17,3.31-.48,3.37-3.45,2.31-.86-.3-3.43-1.62-3.67-2.76-.19-.95,2.06-2.56,1.76-3.16.22.45-5.4-1.6-5.52-1.55-.14.37,0,.65.44.85-1.55-1.81-4.09,4.65-3.33,4.54.36-.05-2.29-.41-1.56,0-1.91-1.1-1.62-2.21-3.9-.57-1.48,1.07-1,2.5-1.83,3.46-.23.25-.39-1.3-.74-1.06-1.23.82-.27,1.89-1.39,2.8a14.11,14.11,0,0,1-3.57,1.94c-2,1-3.38,1.27-5.1,2.89a.85.85,0,0,1-.13-.79c0,.41-.49,1.69-.54,2.37s.65,3.32.46,3.72a1.33,1.33,0,0,1-.69-.65,4.7,4.7,0,0,1,.33.91l-.82-.68c-.33.82,2.14,5.17,2.38,6.14.12.51.09,5.21-.12,4.77,1.59,3.25,3.87,1,6.49.26,2.14-.63,3.52-1.09,5.6-1.86,1.6-.61,5-1.81,6.73-1.53,1.08.18,6.44,4.37,5.22,4.92.37-.16,2.57-2.9,2.71-2.77.68.64-1.13,2.38-1.21,2.79-.33,1.57,1.8-1.24,1.23-.79.78-.61.41,1.92.34,1.72s2.54,3.35,2.78,3.56c1.47,1.26,5.13.09,5.09.06a2.08,2.08,0,0,1,0,.86c-.33-.41,1.22.52,1.59.87-.75-.72,4.31-2.3,4.16-2.14.78-.86,1.23-4.89,1.83-6.19C411.83,326.34,413.36,320,413.8,319.59Z"
            style="fill: none; stroke: rgb(178, 178, 178); stroke-miterlimit: 10; transform-origin: 390.135px 316.037px;"
            id="eluwvsvydmjyb" class="animable"></path>
        <path d="M393.82,330.9c.29.28,1.24.2,1.39-.2S393.57,330.65,393.82,330.9Z"
            style="fill: none; stroke: rgb(178, 178, 178); stroke-miterlimit: 10; transform-origin: 394.507px 330.792px;"
            id="elxnu7cxxmr8q" class="animable"></path>
        <path d="M405.45,338.74a9.5,9.5,0,0,1-2-.62c.35-.11.06,5.32,3,3.79C407.9,341.14,408.46,338.37,405.45,338.74Z"
            style="fill: none; stroke: rgb(178, 178, 178); stroke-miterlimit: 10; transform-origin: 405.538px 340.15px;"
            id="eljunye3q354" class="animable"></path>
        <path d="M430.34,348.21c.18.06.77-.11.44-.56S429.91,348.08,430.34,348.21Z"
            style="fill: none; stroke: rgb(178, 178, 178); stroke-miterlimit: 10; transform-origin: 430.53px 347.872px;"
            id="elf66bkg0y8tt" class="animable"></path>
        <path
            d="M442,334c-.69,1.26-2.2-1.9-2.34-1.89a.65.65,0,0,0,0,.7c.12-.18-2.29-3.44-2.78-3.44-.06,0,1.72,3.52,1.88,4,.53,1.56-1.23,1.5-1.16,2.36,0-.07,1.27,3.67,1.21,3.55C440.25,342,443.38,331.35,442,334Z"
            style="fill: none; stroke: rgb(178, 178, 178); stroke-miterlimit: 10; transform-origin: 439.611px 334.549px;"
            id="el4g6jjc1ckim" class="animable"></path>
        <path d="M437.77,338.49c-1.44-1.13-10.13,6.63-7.51,8.4S439,339.47,437.77,338.49Z"
            style="fill: none; stroke: rgb(178, 178, 178); stroke-miterlimit: 10; transform-origin: 433.851px 342.747px;"
            id="elshh9pzm1l3q" class="animable"></path>
        <path d="M443.48,304.79c.28.11,1.21-.23,1.21-.71S443.05,304.62,443.48,304.79Z"
            style="fill: none; stroke: rgb(178, 178, 178); stroke-miterlimit: 10; transform-origin: 444.049px 304.382px;"
            id="el4v7ybh9wl4n" class="animable"></path>
        <path d="M441.89,306.28c.43.45,1.31.43,1.33-.39S441.5,305.88,441.89,306.28Z"
            style="fill: none; stroke: rgb(178, 178, 178); stroke-miterlimit: 10; transform-origin: 442.527px 306.055px;"
            id="el98an23qh73d" class="animable"></path>
        <path
            d="M292.83,146.27a1.93,1.93,0,0,0-1.1.68c.48,1.05,4.93-1.06,4.95-1.37C296.75,144.19,293.08,145.87,292.83,146.27Z"
            style="fill: none; stroke: rgb(178, 178, 178); stroke-miterlimit: 10; transform-origin: 294.205px 146.14px;"
            id="eld2s1ef80gt5" class="animable"></path>
        <path d="M299.24,146.87c0-.6-1.79.06-1.44.19S299.24,147.47,299.24,146.87Z"
            style="fill: none; stroke: rgb(178, 178, 178); stroke-miterlimit: 10; transform-origin: 298.497px 146.931px;"
            id="elzqrd2klfgcq" class="animable"></path>
        <path d="M291.18,146a4.76,4.76,0,0,1,2-.42c.22-.61-4,0-3.84.34A1.25,1.25,0,0,0,291.18,146Z"
            style="fill: none; stroke: rgb(178, 178, 178); stroke-miterlimit: 10; transform-origin: 291.262px 145.843px;"
            id="elplip0z9zutg" class="animable"></path>
        <path d="M292.93,176c1,1,1.61-.46,2.13-.67C295.77,175.05,291.09,174.14,292.93,176Z"
            style="fill: none; stroke: rgb(178, 178, 178); stroke-miterlimit: 10; transform-origin: 293.816px 175.603px;"
            id="els6b7qxtb3y" class="animable"></path>
        <path
            d="M300.3,164.65a45.43,45.43,0,0,0-3.91,4.36c0,.11,2,1.77,1.86,1.86-.18-.36-.11-.62.19-.78-.19-.05,5,4.3,5.19,1.82.06-.66-2.27-2.09-2.36-3s.91-1.89,1.3-2.74a14.33,14.33,0,0,1,2.33-3.08c1.53-1.41,12.59-6.05,12.1-6.47-1.17-1-11,2.22-12.65,3.22C303.45,160.39,300.33,164.66,300.3,164.65Z"
            style="fill: none; stroke: rgb(178, 178, 178); stroke-miterlimit: 10; transform-origin: 306.703px 164.552px;"
            id="elh11u4b7g9q" class="animable"></path>
        <path d="M408.55,162.29a3.11,3.11,0,0,0,2.78-.61C411.57,159.09,400.14,161.68,408.55,162.29Z"
            style="fill: none; stroke: rgb(178, 178, 178); stroke-miterlimit: 10; transform-origin: 408.395px 161.472px;"
            id="elfgfxqno7ipw" class="animable"></path>
        <path d="M399.77,163.6c0-.56-1.87.21-1.09.49C399.09,164.24,399.77,164.17,399.77,163.6Z"
            style="fill: none; stroke: rgb(178, 178, 178); stroke-miterlimit: 10; transform-origin: 399.13px 163.78px;"
            id="eldrrfk6xjmdw" class="animable"></path>
        <path d="M351.12,153.53c.68.43,6.85-.6,7.06-1.81s-3.57-1.56-3.45-.61C354,145.7,352,154.08,351.12,153.53Z"
            style="fill: none; stroke: rgb(178, 178, 178); stroke-miterlimit: 10; transform-origin: 354.654px 151.456px;"
            id="elekqhpe8exc" class="animable"></path>
        <path
            d="M345.8,148.22a3.3,3.3,0,0,0-.79,1.13c1.73,1.66,5.94,2.93,6.3,0C351.62,146.87,345.8,147.57,345.8,148.22Z"
            style="fill: none; stroke: rgb(178, 178, 178); stroke-miterlimit: 10; transform-origin: 348.166px 149.354px;"
            id="eldht972cma7" class="animable"></path>
        <path
            d="M344,147.17c1.11.52-1,.58-1.12.64-.6.3,2.23.14,2.74-.06s4.25-1.31,3.57-2.17C346.39,142.14,343.45,146.92,344,147.17Z"
            style="fill: none; stroke: rgb(178, 178, 178); stroke-miterlimit: 10; transform-origin: 346.035px 146.158px;"
            id="el331dccucgmg" class="animable"></path>
        <path d="M365.93,162.92c-.79,1.74,1.39.52,1.41.23A.92.92,0,0,0,365.93,162.92Z"
            style="fill: none; stroke: rgb(178, 178, 178); stroke-miterlimit: 10; transform-origin: 366.549px 163.262px;"
            id="el69szjnkjhp8" class="animable"></path>
        <path d="M300,145.48c.56.61,3.9.68,4-.41.05-.37-2.78-.87-2.95-.84C301.61,144.15,300.33,145.81,300,145.48Z"
            style="fill: none; stroke: rgb(178, 178, 178); stroke-miterlimit: 10; transform-origin: 302px 145.073px;"
            id="elp658g3xtngn" class="animable"></path>
        <path d="M343.09,144.5c.14-.56-2.14-.32-1.54.23C341.76,144.92,343,145.07,343.09,144.5Z"
            style="fill: none; stroke: rgb(178, 178, 178); stroke-miterlimit: 10; transform-origin: 342.273px 144.541px;"
            id="elnny5rd8gjr9" class="animable"></path>
        <path
            d="M445.65,171.72c.15.12,3.18-.09,2.58-.8-1.41-1.69-4.45.72-4.23.84C444.55,171.73,445.1,171.72,445.65,171.72Z"
            style="fill: none; stroke: rgb(178, 178, 178); stroke-miterlimit: 10; transform-origin: 446.149px 171.04px;"
            id="elytt7ptemcki" class="animable"></path>
        <path
            d="M395.35,161.27a5.34,5.34,0,0,0,3.74.75c.89-.17,3.28-1.56,2.37-1.89.44.16,1.69,3,2.43.81.61-1.85-1.13-1.41-2.71-1.93-.14,0-3-.11-3-.11C398.65,158.81,392.71,159.82,395.35,161.27Z"
            style="fill: none; stroke: rgb(178, 178, 178); stroke-miterlimit: 10; transform-origin: 399.343px 160.495px;"
            id="elaw6kofyyzdq" class="animable"></path>
        <path d="M402.51,166.08c1.82-.44-4.7-2.62-3.42-.6C399.49,166.13,401.91,166.23,402.51,166.08Z"
            style="fill: none; stroke: rgb(178, 178, 178); stroke-miterlimit: 10; transform-origin: 400.878px 165.388px;"
            id="elrvvjahmupzj" class="animable"></path>
        <path
            d="M454.53,183.55l1.3.3c.33,0-.43-.45-.33-.51-.39.24,2.3-.69,1.69-.92,0,0-5.28-3.17-5.35-2.07.08-1.22.54,2,.36,1.39-1-3.24-7.62-6.79-11.33-7.59-2.07-.45-5.59-.37-6.85.2.11,0,.85,1.59-.17,2.22-.47.29-2.7-1.69-2.19-1.93s1.19.87,1.32-.19c.11-.85-4.35.34-5,.44a25.76,25.76,0,0,1-3.23-.26c-1.4-.13-.66,1.11-1.23,1.4.49-.24-1.81-2.24-1.79-2.22-2-1.72-1.73-2-5.5-2.33-1.16-.09-6.8,0-7.37-1.72-.17-.5,1.71.11,1.21-.73-1.1-1.85-5.61.27-5.65.46.31-.19.62-.4.91-.62a5.94,5.94,0,0,0-1.31-.44c-.38-.63,1.77,0,1.82-.34.33-1.94-9.39-.79-8.43.53a1,1,0,0,0,.92,0c-.62-.34.12,2.35.05,1.54,0,.15-2.21-.25-2.57,0a2,2,0,0,0,.66.44s-6.14-1.16-6.55-1.26-1.12,2.56-2.05,2.5c-1.37-.08-2.43-3.37-3.13-3.32a2.55,2.55,0,0,0,1.25.25c1.75-1-4.38-4.67-5.68-4.39-1,.2-1.16,2.24-1.51,2.3-.51.09-5.42-.12-5.58-.69-.09-.31.66-.7.34-.78-2.54-.67-4.53.53-6.12.68-.42,0,.08-1.48-.54-1.59-.3-.05-4.44,0-4.07.47.23.08.46.14.7.2.06.55-5.19,1.39-5.3,1.68,1.13-2.91,9.63-3.68,8.93-6.7-.2-.9.36-1.67-1.52-2.56-2.4-1.13-4.21.67-6.33.14a5.82,5.82,0,0,1,.84-1.19c0,.24-3-.57-3.38-.43.26-.1,2.08-.41,1.67-1-1.37-2.09-4.53.57-5.69,1.41.59-.43-2.21,3.28-2.3,1.54a5.08,5.08,0,0,0,.75.64c.12-.4-3.22.34-3.39.28.1-.24.21-.48.32-.72a23.23,23.23,0,0,0-3.73.72,1.12,1.12,0,0,0,.7.52c-.05-.41-5.6,1.48-6,1.67-1.31.61-.64.55-1.2,1.31l-1-.06c-.11.13,1.14.71,1.15.83a5.08,5.08,0,0,1-.87.05s1.37.82.75,1.39c-.37.35-2.52.16-3.14.29-8.62,1.82,0,2.4-1.67,4.68-.66.91-5-2.85-6.24-1.59-.11.1,1.39,1.15,1.06,1.24-.66.19-1.66-.77-2.13.14-.37.73,3.05,1.88,2.78,2.2,0,0-3.62-.76-3.67-.81-.72-.81,1.24-3.15-.29-3.67s-2.43,6.87-1.81,7.7c1.65,2.24,4.72,1.06,5.75,4.47.55,1.78-3.15-2.53-1.54-1.84-1.1-.48-.74-1.43-2.2-1.17-2.07.35-.1,1.53-.87,2.52-.91,1.15-2.14,2.82-3.4,3.1-.35.08-3.45-.08-3.17-.88,0,.11,4.1-.41,4.79-2.73.43-1.46-.3-2.63-.61-4.3-.09-.48.14-5.53.16-5.48-2.43-4-6.51.56-6.72,3.41.06-.78-.09,3-.27,2.5,0,0,4.42,2.83,1.85,3.25-1.8.31-9.11-6.11-11.33-4.83.59-.34,3.94,5.77.7,4.46-1.27-.52.05-.64-2.88-.38,0,0-4.68.79-4.32.49s1-.58.94-1.32c0,.47-6.11,2.47-7,2.84-1.18.52-.93,2.73-3.11,1.26s1.11-1.39,1.37-1.71c1-1.19-4-2.48-3.85-1.73-.05-.21,1.19,3.77.24,3.09,2.36,1.69-.38,1.53-.53,1.64-2.72,2.18-2.72-.17-3.26,3.73-.09.66-2.25-.66-2.59-.4l-1.32-.86c-.8.37-.92.85-.36,1.45,1.32-.75,1.75,2.86-.55,1.05-.57-.45-3.69-7.3-4.95-6.67.88-.44,13.8,5.7,9.85-1.38-.76-1.36-8.79-4.76-9.48-3.91a1.65,1.65,0,0,0,.86-.3c-.11-.94-2.08,0-2.3-.2-.53-.59-1.82.74-2.21-.72.07.28,2.09-.27,2.14-.54.44-2.36-3.7-.26-3.19-.24-.41,0,.22-1.27.18-1.34-.84-1.6-1.55,1.37-2,1.37-.17,0,.11-1.41-.18-1.22l-1.65,1.78c-.6.13,1.16-1.94,1.16-2-.17-1.07-2,1-2,1,.57-.49-2.31,1.64-1.46,1.38-1.11.34.29-2.5.43-2,.06.24-1.69.2-1.66.62a1.71,1.71,0,0,1,.48.87,3.84,3.84,0,0,0-1.31-.05,1.54,1.54,0,0,0,.65.64,4.67,4.67,0,0,1-1.52-.53c.06,0,.48,1.58,0,1.27-.86-.56-.68-1.47-1.87-.95-.09,0-2.48,1.82-2.44,2.09s1.17-.24,1,.72c0,0-2,0-2,.09.08-.35.17-.7.28-1.05,0,0-3.2,3.07-3.45,3.06.89.05,2.94-2.24,3.89-1.35,0,0-.14,1-.16,1-2.69,1.09-3.49,5.52-6,6.62-.21.1,1,.92.61,1.09-1.43.56-1.44,1.11-2.63,2.09-.09.07-.89-1-1-.34-.14,1.43-.85.32-1.56,1.39a.92.92,0,0,0,.61.51c-.77-1.69-2.71,2.73-2.65,2.39-.44,2.67,1.3,1.78,1.44,2.24.39,1.37-1.59.72-1.5.65a7.27,7.27,0,0,0-.2,1.21c0,.49,1.07-.55,1.27,0,.13.36-.67.74-.77.9-1.35,2.05,4.53.47,3.84.62.95-.21,1.44-1.71,2-2,.32-.2,2.87,7.75,3.12,7.84,1.2.45,3.7-3.2,4.1-3.31q-.24.63-.63.3c.23-2.14,2.78-3.82,2.77-5.45,0-2.13-2.41-1.12-1.63-4.25.44-1.79,1.84-2,2.76-3.25.74-1,1.95-4.06,3.33-4.52,6.47-2.13-1.49,5.4-1.7,5.78-.49.93-.13,4.6.32,5.05,1.79,1.8,5.22.47,7.2-.07a4.44,4.44,0,0,1,.55-.77,5,5,0,0,0-.55.77,4.63,4.63,0,0,1,2.23.88c.43.52-5.54,1.17-5.28,1-3.84,1.84-.13,1.77-1.1,2.87-1.15,1.83-1.38.44-1.86.83-.16.13-3,.35-1.95,2.47,1,2.31-1,2.87-2.29,3.34.11,0-3.34.33-4.17.44-1.8.22-.85.47-1.73-.78-.37-.53-2.48,1.45-2.87,1.16a1.67,1.67,0,0,1,0-.86c-.49-.13-2,0-1.85-1.31,0-.24,1.32.69,1.42.11.2-1.1-.62-.38-.94-.87-.15-.24,1.42-2.89.6-3.79-.55-.61-1.47,1.46-1.47,1.46-.59.59-1.17-.47-1.25,2,0,.79,1.51,2.59,1.13,3.36-.3.59-3.6,1.2-4.21,1.6a28.85,28.85,0,0,0-3.1,3.1,15.89,15.89,0,0,1-2.11,2.09c-.93.43-2.88.18-3.19.35-.67.39.63,1.43,0,1.94s-2.42-1.09-2.84-.3c-1.14,2.12.57.51,1.57,2.12,1.38,2.21,3.53,4.84.32,6.47-1.49.76-5.14-1.2-6.35-.54-2.28,1.24-.5,1.13-1,3.25-1,4.31-.89,6.12,2.65,7.27a6.08,6.08,0,0,0,7.16-2.47c1.64-2.2,2.62-6,5.12-7.57-.57.36,5.22-.65,4.75-.67,2.48.12.93-.23,3.05,1.42-.07-.05,8.19,7.51,5.84,7.51,1.33,0,.87-3.34,1-3.42a1.66,1.66,0,0,1,1.48.49c-.88-.26-9.09-9-5.09-8.86.55,0,4.85,4.88,6.21,5.66a1.68,1.68,0,0,1,.09-.32,1.68,1.68,0,0,0-.09.32c-1.34-.79,3.59,7.52,3.59,5.58,0-1.71-2.22,4.24.69,2.63a3.51,3.51,0,0,0-.21-1.28,1.49,1.49,0,0,0,.81,0c.42-.53-.88-.46-.62-.73s1.66.51,1.47-.6c-.24-1.35-1,0-1.47-.54.16.18-.21-2.68-.44-2.58a7.52,7.52,0,0,0,1.4.27c.77-.34,4.9-.31,5.9-1.31-.26.26-1.65-2.21-1.56-2.69a16.27,16.27,0,0,1,2-3.12c.47-.67.69-2.22,1.67-2.67.62-.29,3.38-.18,3.53.66a6.06,6.06,0,0,1-1.54.94c-.05-.29,1.25,1.6,1.22,1.56s3.55-.94,3.6-1c.21-.36-3.24-.16-1.58-1.93.39-.41,4.26-1.86,4.53-1.26.06.13-2.72,2.75-2.63,3.21.37,1.74,5.69,2.68,5.51,4.58-.24,2.56-3.29,1.66-5.08,1.63-.77,0-1.37-.86-2.11-.91-2.45-.15-3.89.41-6.19,1.06-3,.82-6.25,2.35-2.82,5.86,1.62,1.64,3.19.95,5,1,.59,0,4.25-.79,4.74-.47s-1.06,4.64-1.25,5.1l.6.28h0c0,.13,0,.25,0,.38,0-.12,0-.25,0-.38l-.58-.27c-1.79,4.26-5.28,3.39-9.77,2.55-1.2-.23-2.15-.8-3.34-1-1.94-.26-.93-1.84-3.48-.5-.85.45-.61,2.15-.7,2.19-1.52.61-8.06-1.62-9.75-3.36s1.17-3.22-.11-5c-.78-1.1-6.1-.12-7.62.05a30.86,30.86,0,0,0-5.47,1.43c-1.85.53-3.37.38-5.1.83-1.47.39-.88-.23-2.18.46,1.37-.72-2.93,3.2-2.4,2.36-.65,1-1.17,2.2-1.77,3.25-.48.82-.35,1.89-1.13,3.07-.51.77-1.54.87-2.12,1.48a20.77,20.77,0,0,0-3.77,6.05c-1,2.54-.4,2.94-.49,5.16-.08,2.06-.73,4.26-.66,6.3.07,2.23,1.08,3.13,2.17,4.89,2.45,4,5.36,7.69,10.07,8.14a21.15,21.15,0,0,0,7.37-1c.3-.08,3.46-1.85,3.79-1.43a29.22,29.22,0,0,0,2.67,1.44c.41.2.25,1.21.79,1.45s1.14-.57,1.58-.29c2.5,1.58,1.53.21,2.81,3.09.24.64-.49,2.67-.48,3,.05,2.59,1,3,2.53,5.6,1.24,2.15,2.83,6.4,2.49,8.86-.36,2.65-2.3,4.93-2.42,7.83-.19,1.95,2.58,6.53,3,8.56.77,3.64,1.88,5.86,3.1,9.32,1.66,4.69.24,5.71,5.5,5.06,5.07-.62,8-2.21,10.6-7.25a25.4,25.4,0,0,0,.94-4.05c1.78-2.62,2.89-1.19,3.39-4.6.35-2.43-1.16-2.42.15-4.75,1.06-1.87,4-2.15,5.08-3.84,2.33-3.49-.08-7.35-.75-10.91-.72-3.79,1.22-6.52,3.82-9.34,1.08-1.17,13.92-14.7,9.93-16.18-2.76-1-5.81,2.91-8.95.91l0,0,0,0A25.59,25.59,0,0,0,284,263.4c-1.44-1.75-3.45-3.49-4.29-5.87-.37-1-5.57-15.28-5.74-15.22.3-.11,1.13,3.31,1.93,3.31a5.6,5.6,0,0,0,.71-1.8c.79.47,3.22,6,3.73,7,1.43,2.94,3.27,5.53,4.68,8.59.66,1.41.51,4.54,1.49,5.6,1.32,1.44,4.15,0,6.14-.87,3.57-1.55,7.7-3.63,10.12-6.14.25-.27,3.13-3.66,3-4.33s-4.5-5.8-3.94-5.75c-1.12-.1-2.52,3.28-4.73,3.07-1.79-.16,0-2.39-1.07-2.71-.48-.15-.84,1.27-.85,1.26-1-.78-3.63-6.19-2.27-6.93.82-.44,5.7,4.07,7.38,4.82.34.16,2,.06,2.5.19.18,0,.85,1.08,1.56,1.31,2,.64,4.1.32,6.12.38s2.6,0,4.22.83c-.25-.12,3.77,3.69,3.77,2.63a2.8,2.8,0,0,1-1.61.6c-.86,4.22,5.07.75,4,.23.95.48,5.61,30,8.88,12.67.91-4.84,2.52-5.77,6.18-9.4.66-.66,5-4.65,6.05-4.08,2.35,1.29,2,7.79,3.27,8.82,2.59,2.16,2-4.79,3.78,2.7.58,2.46-.06,5.34.51,7.52.33,1.26,4.62,10.13,6.72,9.06,1.5-.77-2.6-6.18-3.29-7.08-.87-1.15-4.59-7.42-1.23-8.56,1-.33,3.22,2.61,3.63,3.07.15.16,1.85,3.11,1.73,3,.21.14,2.56-2.12,2.69-2.24,3.58-3.41,2.22-4.3.16-8.23-1-2-3.05-4.82.46-6.19,2.44-1,1.59.24,2.67,1.37-.21-.22,9.47-5,10.47-6.25.62-.76,3.46-7.06,3.79-7-.32-.1-1.28,0-1.57-.21.56.4,1.85-2.46-.5-2.46,0,0,2-.14,1.68.19.18-.2-3-4.47-2.94-4.61.28-1.93,2.58-2,3.75-2.87,1.82-1.41-4.78-.91-3.35-.21a29.53,29.53,0,0,1-2.39-2.21c0-.42,4.71-3.62,5.22-3.18.12.1-1.2,3-.93,3,3.7.21,1.72-2.22,4.7-.3-1.38-.89.49,2.32.21,1.76,0,0,1.37.29,1.61,1.09.2.63-1,2.72-.41,3.67.25.39,3.46-1.24,3.56-1.38,1-1.63-1-3-1.25-4.46-.45-3.08-.78-.05.36-2.83a13.74,13.74,0,0,1,2.95-3.86h0c1.43-1.13,1.63.51,3.2-.16s2.72-2.54,3.66-3.72a19.42,19.42,0,0,0,4.05-8.21c.42-1.7,1.51-3.76.58-5.23-1.81-2.88-2.15-.24-3.87-.13-.2,0,0-1.4,0-1.49s-1,.9-.91.88c1.08-.25-1.81-2.38-1.92-1.7.16-1,3.2-3.05,4-3.8,2.54-2.37,3.83-4.18,7.29-4.67.86-.13,8.53.06,8.27.5a2.56,2.56,0,0,1-.85.27c-.45.37,4.81-.35,4.58-.62-1.67-1.87,4-6.25,6.06-4.83-.27-.18-.17,2.31-.23,2.2.23.5,6-4.6,5.9-3.4-.18,1.75-5.06,5.82-6.72,7.26-2.16,1.86-3.22,1.6-4.16,4.55-.6,1.88-.42,7.77,1,9.36-.22-.25,7.55-9.25,7.61-9.31-.72.72-.17-3.34,0-2.75-.44-1.31-1.87-1.06.15-3.48a13.89,13.89,0,0,1,3.08-1.76,1.17,1.17,0,0,1,.24,1.11c-.47-1.93,5-.16,4.84-.11,1-.26,2.37-2.12,3.51-2.78s5.5-1.74,5.86-2.09c2.92-2.78-1.61-2.61-2.24-4.68.24.8,4.16-.74,4.73-1.08.82-.48-.3-1.31,1.15-2.1-.82.45,5.92,5.3,7.2,4.06a1.46,1.46,0,0,0-.51-.69C453.68,185.38,454.74,183.72,454.53,183.55Z"
            style="fill: none; stroke: rgb(178, 178, 178); stroke-miterlimit: 10; transform-origin: 337.203px 241.062px;"
            id="el87iii0900vq" class="animable"></path>
        <path d="M309.53,145.67c1-1.48-4.57-.66-3.3.45A3.32,3.32,0,0,0,309.53,145.67Z"
            style="fill: none; stroke: rgb(178, 178, 178); stroke-miterlimit: 10; transform-origin: 307.846px 145.619px;"
            id="elhrwoh1d3ac" class="animable"></path>
        <path
            d="M303.66,146.38c-.52.22-1.05.42-1.59.59-.7.79,3.55.66,3.82-.25C306.06,146.17,303.61,146.23,303.66,146.38Z"
            style="fill: none; stroke: rgb(178, 178, 178); stroke-miterlimit: 10; transform-origin: 303.945px 146.883px;"
            id="el4wznsj1ufx5" class="animable"></path>
        <path d="M303.49,144.35a8.76,8.76,0,0,0,2.13-.83c-.45-.61-3.58.59-3.64.38A1.86,1.86,0,0,0,303.49,144.35Z"
            style="fill: none; stroke: rgb(178, 178, 178); stroke-miterlimit: 10; transform-origin: 303.8px 143.858px;"
            id="el3tsfgtdorod" class="animable"></path>
        <path
            d="M400.94,210.52c.73,1.8-1.45,7-.31,8.46-.77-1,1.73.11,1.75.11s-1-3-.94-3.12c.9-2,1.82-1.07,2.12-1.47.54-.74-2.66-8.91-2.21-9.2C400.09,206.12,400.55,209.58,400.94,210.52Z"
            style="fill: none; stroke: rgb(178, 178, 178); stroke-miterlimit: 10; transform-origin: 401.957px 212.195px;"
            id="elxeamsmxqkto" class="animable"></path>
        <path d="M318.65,166.38a2.8,2.8,0,0,0,1.78-.45C321.17,164.51,317.1,166.12,318.65,166.38Z"
            style="fill: none; stroke: rgb(178, 178, 178); stroke-miterlimit: 10; transform-origin: 319.408px 165.871px;"
            id="el8ju6xngam3t" class="animable"></path>
        <path d="M329.55,166.53c-.07-.6-1.33.18-.89.42S329.62,167.14,329.55,166.53Z"
            style="fill: none; stroke: rgb(178, 178, 178); stroke-miterlimit: 10; transform-origin: 329.062px 166.696px;"
            id="elpuxan0heqej" class="animable"></path>
        <path d="M312,145.48l1-.55c.33-1.15-3.09.27-3,.44A2.7,2.7,0,0,0,312,145.48Z"
            style="fill: none; stroke: rgb(178, 178, 178); stroke-miterlimit: 10; transform-origin: 311.51px 145.053px;"
            id="elvhilk5dcip" class="animable"></path>
        <path d="M426.34,309.34c.07.45,3,2.86,3.36,2.56S426.27,308.87,426.34,309.34Z"
            style="fill: none; stroke: rgb(178, 178, 178); stroke-miterlimit: 10; transform-origin: 428.032px 310.606px;"
            id="elkdd8dmp2r7" class="animable"></path>
        <path d="M145.75,249.58c-.64-1.21.14,2.41.44,1.73A13.24,13.24,0,0,1,145.75,249.58Z"
            style="fill: none; stroke: rgb(178, 178, 178); stroke-miterlimit: 10; transform-origin: 145.847px 250.363px;"
            id="el93l0nfd93i" class="animable"></path>
        <path d="M164.71,269.51c.86.19,1.14-.1.83-.86C164.93,268.09,164.43,269.22,164.71,269.51Z"
            style="fill: none; stroke: rgb(178, 178, 178); stroke-miterlimit: 10; transform-origin: 165.146px 269.031px;"
            id="elga9ui0ojnij" class="animable"></path>
        <path d="M361,286.32c0-.34-.89-.18-.62.3S361,286.66,361,286.32Z"
            style="fill: none; stroke: rgb(178, 178, 178); stroke-miterlimit: 10; transform-origin: 360.665px 286.485px;"
            id="eloeejwuryhob" class="animable"></path>
        <path
            d="M368.09,293.58a3,3,0,0,0,1.37,0c.61-.5-3.29-1.17-3.19-1.12a1,1,0,0,1,1.17-.87c-1,.68-9.92-2.31-9.32-.21C358.36,292.27,367.71,294.17,368.09,293.58Z"
            style="fill: none; stroke: rgb(178, 178, 178); stroke-miterlimit: 10; transform-origin: 363.808px 292.156px;"
            id="elu7bmrzzijsn" class="animable"></path>
        <path d="M378.65,293.61c.88,0,1-.12.38-.37a22.27,22.27,0,0,0-4.63.56C375,295,377.88,293.66,378.65,293.61Z"
            style="fill: none; stroke: rgb(178, 178, 178); stroke-miterlimit: 10; transform-origin: 376.909px 293.769px;"
            id="elght3lic64re" class="animable"></path>
        <path
            d="M371.76,293.16c-.33.82-1.14-.28-1.55.27-.86,1.15,2.93,1.12,3.26.33C373.67,293.3,371.91,292.79,371.76,293.16Z"
            style="fill: none; stroke: rgb(178, 178, 178); stroke-miterlimit: 10; transform-origin: 371.785px 293.68px;"
            id="el5lnjv7r6inv" class="animable"></path>
        <path
            d="M361.68,281.81c2.58,2.65,1.33,4.93,5.6,5.15,3.54.19,3.75-2.64,6.06-5.53-.16.19-1.53-3.05-1.52-3.36.08-1.38,1.72-1.17,2-2.09s-3.3-1.57-3.49-1.53c-1.16.25-.57,2.29-2.56,2.14-.06,0-3.47,3.91-3.49,3.94C364.54,279.92,359.88,280,361.68,281.81Z"
            style="fill: none; stroke: rgb(178, 178, 178); stroke-miterlimit: 10; transform-origin: 367.551px 280.709px;"
            id="elptwrusoo16l" class="animable"></path>
        <path d="M348.13,280.79c-.06.38.31,1.47.72,1S348.2,280.42,348.13,280.79Z"
            style="fill: none; stroke: rgb(178, 178, 178); stroke-miterlimit: 10; transform-origin: 348.534px 281.304px;"
            id="elt4rroyl4vvb" class="animable"></path>
        <path d="M349.81,284c-.06.18.31.94.55.71S350,283.43,349.81,284Z"
            style="fill: none; stroke: rgb(178, 178, 178); stroke-miterlimit: 10; transform-origin: 350.11px 284.293px;"
            id="el2ktgk3zw4k9" class="animable"></path>
        <path
            d="M358.35,288.2c-.1-1.58.79-1.16.78-2.18,0-.44-1.44-1.79-1.47-1a5.16,5.16,0,0,1,.73.89c-.3.76-3.82-4.6-4-4.8-.82-.93-7.92-6.4-8.24-5.65-.23.53,5.46,8.71,6.2,9.74S358.67,293.22,358.35,288.2Z"
            style="fill: none; stroke: rgb(178, 178, 178); stroke-miterlimit: 10; transform-origin: 352.637px 282.693px;"
            id="elezfg1j10tx8" class="animable"></path>
        <path d="M375.6,295.64c0-1-2-.47-2.13-.64S375.6,296.58,375.6,295.64Z"
            style="fill: none; stroke: rgb(178, 178, 178); stroke-miterlimit: 10; transform-origin: 374.532px 295.454px;"
            id="el5wu52vnrtwm" class="animable"></path>
        <path
            d="M373.3,285.94c-.17.3,2.16,3.7,1.2,4.1.9-.37.1-4.14,1-3.7,1.69.83-.18,3.16,2.08,1.4-1.2.93.06-6.22,1-4.2.12.27-5.12,1.65-3.81-.49,1.43-2.34,4.61.33,5.86-2.26-.75,1.57-3.86-.34-4.9.36C374.08,282.24,374.2,284.35,373.3,285.94Z"
            style="fill: none; stroke: rgb(178, 178, 178); stroke-miterlimit: 10; transform-origin: 376.961px 285.415px;"
            id="el6ngxw5cugqe" class="animable"></path>
        <path d="M384.1,286.81a16.59,16.59,0,0,0,3,.83C388.43,287.64,383.48,284.77,384.1,286.81Z"
            style="fill: none; stroke: rgb(178, 178, 178); stroke-miterlimit: 10; transform-origin: 385.687px 286.859px;"
            id="elwae6a2d3rf8" class="animable"></path>
        <path d="M384.27,280.9c0-2.52-2.09,2.68-.17,2.3C385.41,282.94,384.27,280.85,384.27,280.9Z"
            style="fill: none; stroke: rgb(178, 178, 178); stroke-miterlimit: 10; transform-origin: 384.009px 281.714px;"
            id="el6a5jyf8m696" class="animable"></path>
        <path
            d="M380.41,295c.6-.77,2.58-.88,2.84-1.64.14-.44-3.05,1-3.34,1-.46.08-1.78,1.06-1,1.55A1.57,1.57,0,0,0,380.41,295Z"
            style="fill: none; stroke: rgb(178, 178, 178); stroke-miterlimit: 10; transform-origin: 380.962px 294.594px;"
            id="elocylk1yx1r" class="animable"></path>
        <path d="M381.74,286.88c.13.6,1.13.94,1.4.42S381.58,286.19,381.74,286.88Z"
            style="fill: none; stroke: rgb(178, 178, 178); stroke-miterlimit: 10; transform-origin: 382.449px 287.061px;"
            id="elf4lamljm935" class="animable"></path>
        <path d="M246.51,226.88c-.32.59.4,4,1.71,2.31C249.3,227.82,247.33,225.32,246.51,226.88Z"
            style="fill: none; stroke: rgb(178, 178, 178); stroke-miterlimit: 10; transform-origin: 247.485px 228.02px;"
            id="el2tmeibgjgtx" class="animable"></path>
        <path
            d="M254,230.92c.24-.06-2.64-.26-2.38.51a8.48,8.48,0,0,0,2.52,1.61,17.71,17.71,0,0,1,.79-2A.73.73,0,0,0,254,230.92Z"
            style="fill: none; stroke: rgb(178, 178, 178); stroke-miterlimit: 10; transform-origin: 253.267px 231.922px;"
            id="elxs74v3eck6i" class="animable"></path>
        <path
            d="M379.11,161.88a11.21,11.21,0,0,0-11.21,11.21c0,5.6,10.34,18.78,10.34,18.78h.87s11.22-12.58,11.22-18.78A11.21,11.21,0,0,0,379.11,161.88Zm0,16.69a5.48,5.48,0,1,1,5.48-5.48A5.47,5.47,0,0,1,379.11,178.57Z"
            style="fill: rgb(38, 50, 56); stroke: rgb(38, 50, 56); stroke-linecap: round; stroke-linejoin: round; transform-origin: 379.115px 176.875px;"
            id="elb96beasor9w" class="animable"></path>
        <path
            d="M129,252.33a6.21,6.21,0,0,0-6.21,6.22c0,3.1,5.73,10.41,5.73,10.41H129s6.22-7,6.22-10.41A6.21,6.21,0,0,0,129,252.33Zm0,9.25a3,3,0,1,1,3-3A3,3,0,0,1,129,261.58Z"
            style="fill: rgb(38, 50, 56); stroke: rgb(38, 50, 56); stroke-linecap: round; stroke-linejoin: round; transform-origin: 129.005px 260.645px;"
            id="elw40lmw3w42j" class="animable"></path>
        <path
            d="M317.4,167.54a6.81,6.81,0,0,0-6.81,6.81c0,3.39,6.28,11.39,6.28,11.39h.53s6.8-7.63,6.8-11.39A6.8,6.8,0,0,0,317.4,167.54Zm0,10.13a3.33,3.33,0,1,1,3.32-3.32A3.33,3.33,0,0,1,317.4,177.67Z"
            style="fill: rgb(38, 50, 56); stroke: rgb(38, 50, 56); stroke-linecap: round; stroke-linejoin: round; transform-origin: 317.395px 176.64px;"
            id="eljuq9saas07" class="animable"></path>
        <path
            d="M154.66,294.31a5.09,5.09,0,0,0-5.09,5.1c0,2.53,4.69,8.52,4.69,8.52h.4s5.09-5.71,5.09-8.52A5.09,5.09,0,0,0,154.66,294.31Zm0,7.58a2.49,2.49,0,1,1,2.49-2.48A2.49,2.49,0,0,1,154.66,301.89Z"
            style="fill: rgb(38, 50, 56); stroke: rgb(38, 50, 56); stroke-linecap: round; stroke-linejoin: round; transform-origin: 154.66px 301.12px;"
            id="ellx3g8ehqc19" class="animable"></path>
        <path
            d="M365.5,223.84a6.8,6.8,0,0,0-6.81,6.8c0,3.4,6.28,11.4,6.28,11.4h.53s6.8-7.64,6.8-11.4A6.8,6.8,0,0,0,365.5,223.84Zm0,10.13a3.33,3.33,0,1,1,3.32-3.33A3.33,3.33,0,0,1,365.5,234Z"
            style="fill: rgb(38, 50, 56); stroke: rgb(38, 50, 56); stroke-linecap: round; stroke-linejoin: round; transform-origin: 365.495px 232.94px;"
            id="elxe1o9fj5r19" class="animable"></path>
        <path
            d="M397.43,293.13a6.81,6.81,0,0,0-6.81,6.81c0,3.4,6.28,11.4,6.28,11.4h.53s6.8-7.64,6.8-11.4A6.8,6.8,0,0,0,397.43,293.13Zm0,10.13a3.32,3.32,0,1,1,3.32-3.32A3.32,3.32,0,0,1,397.43,303.26Z"
            style="fill: rgb(38, 50, 56); stroke: rgb(38, 50, 56); stroke-linecap: round; stroke-linejoin: round; transform-origin: 397.425px 302.235px;"
            id="el5uhrrbkk8tg" class="animable"></path>
        <path
            d="M126.34,213.62a6.81,6.81,0,0,0-6.8,6.81c0,3.39,6.28,11.4,6.28,11.4h.52s6.81-7.64,6.81-11.4A6.81,6.81,0,0,0,126.34,213.62Zm0,10.13a3.32,3.32,0,1,1,3.33-3.32A3.32,3.32,0,0,1,126.34,223.75Z"
            style="fill: rgb(38, 50, 56); stroke: rgb(38, 50, 56); stroke-linecap: round; stroke-linejoin: round; transform-origin: 126.345px 222.725px;"
            id="eli28hbkje8v" class="animable"></path>
        <path
            d="M260.64,163.44a6.8,6.8,0,0,0-6.8,6.8c0,3.4,6.28,11.4,6.28,11.4h.52s6.81-7.64,6.81-11.4A6.8,6.8,0,0,0,260.64,163.44Zm0,10.13a3.33,3.33,0,1,1,3.33-3.33A3.33,3.33,0,0,1,260.64,173.57Z"
            style="fill: rgb(38, 50, 56); stroke: rgb(38, 50, 56); stroke-linecap: round; stroke-linejoin: round; transform-origin: 260.645px 172.54px;"
            id="elkilnh837th" class="animable"></path>
        <path
            d="M78.27,168.24a6.81,6.81,0,0,0-6.81,6.81c0,3.39,6.28,11.4,6.28,11.4h.53s6.8-7.64,6.8-11.4A6.8,6.8,0,0,0,78.27,168.24Zm0,10.13a3.32,3.32,0,1,1,3.32-3.32A3.33,3.33,0,0,1,78.27,178.37Z"
            style="fill: rgb(38, 50, 56); stroke: rgb(38, 50, 56); stroke-linecap: round; stroke-linejoin: round; transform-origin: 78.265px 177.345px;"
            id="el1cdh4n4rjeh" class="animable"></path>
        <path d="M53,343.05c0-109.91,90-199,201-199s201,89.09,201,199"
            style="fill: none; stroke: rgb(38, 50, 56); stroke-miterlimit: 10; stroke-dasharray: 3; transform-origin: 254px 243.55px;"
            id="el1rp1medvp4s" class="animable"></path>
    </g>
    <g id="freepik--Airplane--inject-26" class="animable" style="transform-origin: 257.105px 98.475px;">
        <path
            d="M288.85,101.47a3.1,3.1,0,0,0,2.93-3.11h0a3.75,3.75,0,0,0-3.61-3.7l-16.32-.47-.34,0-7-9.13,2.55-.19a1.56,1.56,0,0,0,1.48-1.43,1.53,1.53,0,0,0-1.58-1.6l-4.75.19L257,75.18l3.55-.25A1.52,1.52,0,0,0,262,73.41h0a.9.9,0,0,0-.68-1.54l-6.61.26-3.47-4.55a7.15,7.15,0,0,0-5.4-2.82l-1.7-.06,7.56,15.93s5,10.18,1.15,14.6l-18.42,1-.24,0-7.39-9.65-4.37-.44L226,97.55l-2,.32a.18.18,0,0,0,0,.36l2.23.54-3.74,11.65,4.83-.25,6.42-9.56.42.1,16.9.73c2.19.74,5.43,2.53,4.28,6.51-1.69,5.87-11,24.3-11,24.3l2.85-.47a7.44,7.44,0,0,0,4.68-2.79l3.3-4.26,5.45-.39A1.57,1.57,0,0,0,262,122.9a1.51,1.51,0,0,0-1.58-1.59l-2.78.11,4.85-6.27,5.45-.39a1.56,1.56,0,0,0,1.48-1.43,1.53,1.53,0,0,0-1.58-1.6l-2.79.11,7.37-9.51Z"
            style="fill: rgb(38, 50, 56); transform-origin: 257.105px 98.475px;" id="el3tyfji0p1l" class="animable">
        </path>
    </g>
    <g id="freepik--Box--inject-26" class="animable" style="transform-origin: 227.19px 262.405px;">
        <polygon points="189.58 221.85 212.61 205.5 197.83 180.52 118.93 164.76 110.67 206.09 189.58 221.85"
            style="fill: rgb(255, 255, 255); stroke: rgb(38, 50, 56); stroke-miterlimit: 10; transform-origin: 161.64px 193.305px;"
            id="elqwmox6mp4j8" class="animable"></polygon>
        <path
            d="M 130.088 181.387 C 129.368 181.387 128.651 181.26 127.938 181.007 C 127.231 180.754 126.721 180.474 126.408 180.167 L 127.368 178.457 C 127.621 178.684 128.015 178.92 128.548 179.167 C 129.081 179.414 129.595 179.537 130.088 179.537 C 130.721 179.537 131.238 179.387 131.638 179.087 C 132.045 178.787 132.248 178.37 132.248 177.837 C 132.248 177.43 132.138 177.077 131.918 176.777 C 131.705 176.477 131.441 176.227 131.128 176.027 C 130.815 175.834 130.371 175.594 129.798 175.307 C 129.111 174.967 128.641 174.714 128.388 174.547 C 127.228 173.767 126.648 172.687 126.648 171.307 C 126.648 170.167 127.025 169.294 127.778 168.687 C 128.538 168.08 129.491 167.777 130.638 167.777 C 131.878 167.777 132.928 168.13 133.788 168.837 L 132.838 170.477 C 132.611 170.237 132.291 170.03 131.878 169.857 C 131.465 169.684 131.021 169.597 130.548 169.597 C 129.948 169.597 129.478 169.73 129.138 169.997 C 128.798 170.27 128.628 170.67 128.628 171.197 C 128.628 171.57 128.735 171.904 128.948 172.197 C 129.168 172.49 129.441 172.747 129.768 172.967 C 130.101 173.18 130.548 173.444 131.108 173.757 C 131.648 174.057 132.061 174.294 132.348 174.467 C 132.641 174.64 132.911 174.847 133.158 175.087 C 133.511 175.4 133.795 175.774 134.008 176.207 C 134.221 176.634 134.328 177.107 134.328 177.627 C 134.328 178.427 134.148 179.11 133.788 179.677 C 133.421 180.244 132.915 180.67 132.268 180.957 C 131.628 181.244 130.901 181.387 130.088 181.387 ZM 136.458 181.207 L 136.458 167.977 L 138.348 167.977 L 138.348 172.947 L 138.278 174.477 C 138.505 173.97 138.868 173.554 139.368 173.227 C 139.875 172.894 140.465 172.727 141.138 172.727 C 141.991 172.727 142.645 172.904 143.098 173.257 C 143.551 173.61 143.858 174.107 144.018 174.747 C 144.171 175.38 144.248 176.207 144.248 177.227 L 144.248 181.207 L 142.328 181.207 L 142.328 177.207 C 142.328 176.514 142.288 175.97 142.208 175.577 C 142.128 175.177 141.971 174.877 141.738 174.677 C 141.505 174.47 141.165 174.367 140.718 174.367 C 140.358 174.367 139.998 174.474 139.638 174.687 C 139.271 174.907 138.968 175.224 138.728 175.637 C 138.488 176.05 138.368 176.54 138.368 177.107 L 138.368 181.207 L 136.458 181.207 ZM 146.858 181.207 L 146.858 172.947 L 148.878 172.947 L 148.878 181.207 L 146.858 181.207 Z M 147.848 171.397 C 147.475 171.397 147.165 171.27 146.918 171.017 C 146.665 170.764 146.538 170.454 146.538 170.087 C 146.538 169.747 146.665 169.457 146.918 169.217 C 147.165 168.977 147.475 168.857 147.848 168.857 C 148.208 168.857 148.515 168.977 148.768 169.217 C 149.021 169.457 149.148 169.747 149.148 170.087 C 149.148 170.454 149.025 170.764 148.778 171.017 C 148.531 171.27 148.221 171.397 147.848 171.397 ZM 151.608 185.577 L 151.608 172.947 L 153.488 172.947 L 153.488 174.477 C 154.148 173.31 155.178 172.727 156.578 172.727 C 157.745 172.727 158.688 173.097 159.408 173.837 C 160.128 174.577 160.488 175.64 160.488 177.027 C 160.488 177.894 160.311 178.657 159.958 179.317 C 159.605 179.977 159.125 180.487 158.518 180.847 C 157.911 181.207 157.235 181.387 156.488 181.387 C 155.795 181.387 155.191 181.264 154.678 181.017 C 154.171 180.77 153.775 180.42 153.488 179.967 L 153.498 185.577 L 151.608 185.577 Z M 156.038 179.747 C 156.818 179.747 157.418 179.497 157.838 178.997 C 158.258 178.504 158.468 177.867 158.468 177.087 C 158.468 176.267 158.261 175.614 157.848 175.127 C 157.435 174.647 156.831 174.407 156.038 174.407 C 155.605 174.407 155.201 174.51 154.828 174.717 C 154.448 174.93 154.148 175.23 153.928 175.617 C 153.701 176.01 153.588 176.464 153.588 176.977 L 153.588 177.107 C 153.588 177.62 153.701 178.077 153.928 178.477 C 154.148 178.884 154.445 179.197 154.818 179.417 C 155.191 179.637 155.598 179.747 156.038 179.747 ZM 162.588 185.577 L 162.588 172.947 L 164.468 172.947 L 164.468 174.477 C 165.128 173.31 166.158 172.727 167.558 172.727 C 168.725 172.727 169.668 173.097 170.388 173.837 C 171.108 174.577 171.468 175.64 171.468 177.027 C 171.468 177.894 171.291 178.657 170.938 179.317 C 170.585 179.977 170.105 180.487 169.498 180.847 C 168.891 181.207 168.215 181.387 167.468 181.387 C 166.775 181.387 166.171 181.264 165.658 181.017 C 165.151 180.77 164.755 180.42 164.468 179.967 L 164.478 185.577 L 162.588 185.577 Z M 167.018 179.747 C 167.798 179.747 168.398 179.497 168.818 178.997 C 169.238 178.504 169.448 177.867 169.448 177.087 C 169.448 176.267 169.241 175.614 168.828 175.127 C 168.415 174.647 167.811 174.407 167.018 174.407 C 166.585 174.407 166.181 174.51 165.808 174.717 C 165.428 174.93 165.128 175.23 164.908 175.617 C 164.681 176.01 164.568 176.464 164.568 176.977 L 164.568 177.107 C 164.568 177.62 164.681 178.077 164.908 178.477 C 165.128 178.884 165.425 179.197 165.798 179.417 C 166.171 179.637 166.578 179.747 167.018 179.747 ZM 177.438 181.387 C 176.458 181.387 175.638 181.19 174.978 180.797 C 174.318 180.41 173.831 179.89 173.518 179.237 C 173.205 178.584 173.048 177.867 173.048 177.087 C 173.048 176.207 173.231 175.437 173.598 174.777 C 173.965 174.117 174.471 173.61 175.118 173.257 C 175.765 172.904 176.498 172.727 177.318 172.727 C 178.591 172.727 179.535 173.077 180.148 173.777 C 180.768 174.484 181.078 175.474 181.078 176.747 C 181.078 177.067 181.061 177.4 181.028 177.747 L 175.088 177.747 C 175.215 178.48 175.475 179.01 175.868 179.337 C 176.255 179.657 176.798 179.817 177.498 179.817 C 178.071 179.817 178.545 179.77 178.918 179.677 C 179.291 179.584 179.635 179.45 179.948 179.277 L 180.538 180.667 C 180.238 180.86 179.831 181.027 179.318 181.167 C 178.798 181.314 178.171 181.387 177.438 181.387 Z M 175.088 176.397 L 179.188 176.397 C 179.201 175.657 179.038 175.134 178.698 174.827 C 178.365 174.52 177.885 174.367 177.258 174.367 C 175.998 174.367 175.275 175.044 175.088 176.397 ZM 186.764 181.387 C 186.024 181.387 185.337 181.21 184.704 180.857 C 184.077 180.504 183.574 180 183.194 179.347 C 182.814 178.694 182.624 177.927 182.624 177.047 C 182.624 175.74 182.991 174.694 183.724 173.907 C 184.457 173.12 185.447 172.727 186.694 172.727 C 187.387 172.727 188.024 172.897 188.604 173.237 C 189.177 173.584 189.567 173.997 189.774 174.477 L 189.684 173.067 L 189.684 167.977 L 191.594 167.977 L 191.594 181.207 L 189.734 181.207 L 189.704 179.747 C 189.497 180.18 189.124 180.56 188.584 180.887 C 188.044 181.22 187.437 181.387 186.764 181.387 Z M 187.094 179.747 C 187.774 179.747 188.347 179.51 188.814 179.037 C 189.287 178.564 189.524 177.944 189.524 177.177 L 189.524 177.047 C 189.524 176.534 189.414 176.074 189.194 175.667 C 188.981 175.254 188.687 174.934 188.314 174.707 C 187.941 174.48 187.534 174.367 187.094 174.367 C 186.321 174.367 185.724 174.617 185.304 175.117 C 184.884 175.61 184.674 176.254 184.674 177.047 C 184.674 177.854 184.884 178.504 185.304 178.997 C 185.717 179.497 186.314 179.747 187.094 179.747 Z"
            transform="matrix(0.9828709959983826, 0.18429601192474365, -0.18429601192474365, 0.9828709959983826, 27.229368209838867, -8.645455360412598)"
            style="fill: rgb(51, 51, 51); white-space: pre;" class="animable" />
        <path
            d="M 195.534 195.926 C 191.946 195.926 189.034 198.838 189.034 202.427 C 189.034 206.015 191.946 208.927 195.534 208.927 C 199.122 208.927 202.035 206.015 202.035 202.427 C 202.035 198.838 199.122 195.926 195.534 195.926 Z M 194.234 205.677 L 190.984 202.427 L 191.9 201.51 L 194.234 203.837 L 199.168 198.903 L 200.084 199.826 L 194.234 205.677 Z"
            transform="matrix(0.984284, 0.176591, -0.176591, 0.984284, 38.819585, -31.348315)" class="animable" />
        <path d="M212.61,205.5s2.79,8.81,15.4,8.81,11.09-8.57,35.8-10.59,39.34,23.7,39.34,23.7"
            style="fill: none; stroke: rgb(38, 50, 56); stroke-miterlimit: 10; transform-origin: 257.88px 215.513px;"
            id="elgv61lngq5p6" class="animable"></path>
        <rect x="182.16" y="270.01" width="138.83" height="90.03"
            style="fill: #9F1239; stroke: rgb(38, 50, 56); stroke-linecap: round; stroke-linejoin: round; transform-origin: 251.575px 315.025px;"
            id="elez1n679tjhr" class="animable"></rect>
        <polygon points="320.99 270.01 182.16 270.01 204.88 227.65 343.71 227.65 320.99 270.01"
            style="fill: #9F1239; stroke: rgb(38, 50, 56); stroke-linecap: round; stroke-linejoin: round; transform-origin: 262.935px 248.83px;"
            id="eli3lbknh6asa" class="animable"></polygon>
        <line x1="194.28" y1="248.32" x2="195.28" y2="248.32"
            style="fill: none; stroke: rgb(38, 50, 56); stroke-miterlimit: 10; transform-origin: 194.78px 248.32px;"
            id="el43sw8ofv5xu" class="animable"></line>
        <line x1="197.25" y1="248.32" x2="330.72" y2="248.32"
            style="fill: none; stroke: rgb(38, 50, 56); stroke-miterlimit: 10; stroke-dasharray: 1.97734, 1.97734; transform-origin: 263.985px 248.32px;"
            id="elz3jb0wggubp" class="animable"></line>
        <line x1="331.71" y1="248.32" x2="332.71" y2="248.32"
            style="fill: none; stroke: rgb(38, 50, 56); stroke-miterlimit: 10; transform-origin: 332.21px 248.32px;"
            id="elpeoagv9sbfn" class="animable"></line>
        <polygon points="343.71 227.65 343.71 316.23 320.99 360.05 320.99 270.01 343.71 227.65"
            style="fill: #9F1239; transform-origin: 332.35px 293.85px;" id="ela40f3enrcdp" class="animable"></polygon>
        <g style="clip-path: url(&quot;#freepik--clip-path-6--inject-26&quot;); transform-origin: 332.35px 293.85px;"
            id="el38spdwsdbj2" class="animable">
            <g id="elr8rje7xeh7">
                <polygon points="343.71 227.65 343.71 316.23 320.99 360.05 320.99 270.01 343.71 227.65"
                    style="opacity: 0.2; transform-origin: 332.35px 293.85px;" class="animable" id="eleqtek3hh5if">
                </polygon>
            </g>
        </g>
        <polygon points="343.71 227.65 343.71 316.23 320.99 360.05 320.99 270.01 343.71 227.65"
            style="fill: none; stroke: rgb(38, 50, 56); stroke-linecap: round; stroke-linejoin: round; transform-origin: 332.35px 293.85px;"
            id="elxr0ing0cqqs" class="animable"></polygon>
        <polygon points="238.58 270.01 258.42 270.01 279.75 227.65 259.92 227.65 238.58 270.01"
            style="fill: rgb(255, 255, 255); stroke: rgb(38, 50, 56); stroke-miterlimit: 10; transform-origin: 259.165px 248.83px;"
            id="el8jct2wsiiw7" class="animable"></polygon>
        <polygon points="258.56 307.57 248.82 300.54 238.58 307.57 238.58 270.01 258.56 270.01 258.56 307.57"
            style="fill: rgb(255, 255, 255); stroke: rgb(38, 50, 56); stroke-miterlimit: 10; transform-origin: 248.57px 288.79px;"
            id="elagi0nac82h" class="animable"></polygon>
        <line x1="175.06" y1="228.43" x2="168.5" y2="228.43"
            style="fill: none; stroke: rgb(38, 50, 56); stroke-miterlimit: 10; transform-origin: 171.78px 228.43px;"
            id="el5p5ccf5w2v3" class="animable"></line>
        <line x1="199.77" y1="228.43" x2="180.1" y2="228.43"
            style="fill: none; stroke: rgb(38, 50, 56); stroke-miterlimit: 10; transform-origin: 189.935px 228.43px;"
            id="elylsaptcxty" class="animable"></line>
        <line x1="180.1" y1="269.28" x2="148.84" y2="269.28"
            style="fill: none; stroke: rgb(38, 50, 56); stroke-miterlimit: 10; transform-origin: 164.47px 269.28px;"
            id="elnw1hu98ra8l" class="animable"></line>
        <line x1="153.37" y1="309.62" x2="148.84" y2="309.62"
            style="fill: none; stroke: rgb(38, 50, 56); stroke-miterlimit: 10; transform-origin: 151.105px 309.62px;"
            id="eljl4agis5zlo" class="animable"></line>
        <line x1="180.1" y1="309.62" x2="158.42" y2="309.62"
            style="fill: none; stroke: rgb(38, 50, 56); stroke-miterlimit: 10; transform-origin: 169.26px 309.62px;"
            id="eloxn7mmhksca" class="animable"></line>
        <line x1="180.1" y1="286.93" x2="164.97" y2="286.93"
            style="fill: none; stroke: rgb(38, 50, 56); stroke-miterlimit: 10; transform-origin: 172.535px 286.93px;"
            id="elca46qm7edyu" class="animable"></line>
        <line x1="194.73" y1="241.04" x2="179.6" y2="241.04"
            style="fill: none; stroke: rgb(38, 50, 56); stroke-miterlimit: 10; transform-origin: 187.165px 241.04px;"
            id="eloygbd2cere" class="animable"></line>
        <line x1="180.1" y1="342.9" x2="164.97" y2="342.9"
            style="fill: none; stroke: rgb(38, 50, 56); stroke-miterlimit: 10; transform-origin: 172.535px 342.9px;"
            id="elbp5ord2yp0w" class="animable"></line>
    </g>
    <defs>
        <filter id="active" height="200%">
            <feMorphology in="SourceAlpha" result="DILATED" operator="dilate" radius="2"></feMorphology>
            <feFlood flood-color="#32DFEC" flood-opacity="1" result="PINK"></feFlood>
            <feComposite in="PINK" in2="DILATED" operator="in" result="OUTLINE"></feComposite>
            <feMerge>
                <feMergeNode in="OUTLINE"></feMergeNode>
                <feMergeNode in="SourceGraphic"></feMergeNode>
            </feMerge>
        </filter>
        <filter id="hover" height="200%">
            <feMorphology in="SourceAlpha" result="DILATED" operator="dilate" radius="2"></feMorphology>
            <feFlood flood-color="#ff0000" flood-opacity="0.5" result="PINK"></feFlood>
            <feComposite in="PINK" in2="DILATED" operator="in" result="OUTLINE"></feComposite>
            <feMerge>
                <feMergeNode in="OUTLINE"></feMergeNode>
                <feMergeNode in="SourceGraphic"></feMergeNode>
            </feMerge>
            <feColorMatrix type="matrix"
                values="0   0   0   0   0                0   1   0   0   0                0   0   0   0   0                0   0   0   1   0 ">
            </feColorMatrix>
        </filter>
    </defs>
    <defs>
        <clipPath id="freepik--clip-path--inject-26">
            <path d="M28.55,352.62H39.09a0,0,0,0,1,0,0v9.08a5,5,0,0,1-5,5h-.46a5,5,0,0,1-5-5v-9.08a0,0,0,0,1,0,0Z"
                style="fill:#92E3A9;stroke:#263238;stroke-linecap:round;stroke-linejoin:round"></path>
        </clipPath>
        <clipPath id="freepik--clip-path-2--inject-26">
            <path
                d="M49.16,352.62H59.7a0,0,0,0,1,0,0v9.08a5,5,0,0,1-5,5H54.2a5,5,0,0,1-5-5v-9.08A0,0,0,0,1,49.16,352.62Z"
                style="fill:#92E3A9;stroke:#263238;stroke-linecap:round;stroke-linejoin:round"></path>
        </clipPath>
        <clipPath id="freepik--clip-path-3--inject-26">
            <path
                d="M69.77,352.62H80.31a0,0,0,0,1,0,0v9.08a5,5,0,0,1-5,5h-.46a5,5,0,0,1-5-5v-9.08A0,0,0,0,1,69.77,352.62Z"
                style="fill:#92E3A9;stroke:#263238;stroke-linecap:round;stroke-linejoin:round"></path>
        </clipPath>
        <clipPath id="freepik--clip-path-4--inject-26">
            <path
                d="M90.38,352.62h10.54a0,0,0,0,1,0,0v9.08a5,5,0,0,1-5,5h-.46a5,5,0,0,1-5-5v-9.08A0,0,0,0,1,90.38,352.62Z"
                style="fill:#92E3A9;stroke:#263238;stroke-linecap:round;stroke-linejoin:round"></path>
        </clipPath>
        <clipPath id="freepik--clip-path-5--inject-26">
            <path d="M111,352.62h10.54a0,0,0,0,1,0,0v9.09a5,5,0,0,1-5,5H116a5,5,0,0,1-5-5v-9.08A0,0,0,0,1,111,352.62Z"
                style="fill:#92E3A9;stroke:#263238;stroke-linecap:round;stroke-linejoin:round"></path>
        </clipPath>
        <clipPath id="freepik--clip-path-6--inject-26">
            <polygon points="343.71 227.65 343.71 316.23 320.99 360.05 320.99 270.01 343.71 227.65"
                style="fill:#92E3A9;stroke:#263238;stroke-linecap:round;stroke-linejoin:round"></polygon>
        </clipPath>
    </defs>
</svg>